<svg width="240" height="240" viewBox="0 0 240 240" fill="none" xmlns="http://www.w3.org/2000/svg">
<g clip-path="url(#clip0_10_2)">
<path d="M217.08 134.16L186.36 153.15C174.19 177.47 149.04 194.16 120 194.16C109.84 194.16 100.15 192.12 91.34 188.42C82.39 184.66 74.32 179.2 67.56 172.44L172.44 67.56L204.85 35.15C194.66 24.95 182.64 16.59 169.33 10.58C154.28 3.78 137.58 0 120 0C91.14 0 64.66 10.19 43.96 27.17C29.74 38.83 18.24 53.7 10.58 70.67C3.78 85.72 0 102.42 0 120C0 137.58 3.78 154.28 10.58 169.33C16.59 182.64 24.96 194.66 35.15 204.85C56.87 226.57 86.87 240 120 240C137.58 240 154.28 236.22 169.33 229.43C203.2 214.13 228.7 183.57 237.06 146.52C238.98 137.99 240 129.12 240 120.01L217.08 134.17V134.16Z" fill="white"/>
</g>
<defs>
<clipPath id="clip0_10_2">
<rect width="240" height="240" fill="white"/>
</clipPath>
</defs>
</svg>
