<svg width="16" height="16" viewBox="0 0 16 16" fill="none" xmlns="http://www.w3.org/2000/svg">
<path d="M7.9935 1.33331C4.3135 1.33331 1.3335 4.31998 1.3335 7.99998C1.3335 11.68 4.3135 14.6666 7.9935 14.6666C11.6802 14.6666 14.6668 11.68 14.6668 7.99998C14.6668 4.31998 11.6802 1.33331 7.9935 1.33331ZM12.6135 5.33331H10.6468C10.4335 4.49998 10.1268 3.69998 9.72683 2.95998C10.9535 3.37998 11.9735 4.23331 12.6135 5.33331ZM8.00016 2.69331C8.5535 3.49331 8.98683 4.37998 9.2735 5.33331H6.72683C7.0135 4.37998 7.44683 3.49331 8.00016 2.69331ZM2.84016 9.33331C2.7335 8.90665 2.66683 8.45998 2.66683 7.99998C2.66683 7.53998 2.7335 7.09331 2.84016 6.66665H5.0935C5.04016 7.10665 5.00016 7.54665 5.00016 7.99998C5.00016 8.45331 5.04016 8.89331 5.0935 9.33331H2.84016ZM3.38683 10.6666H5.3535C5.56683 11.5 5.8735 12.3 6.2735 13.04C5.04683 12.62 4.02683 11.7733 3.38683 10.6666ZM5.3535 5.33331H3.38683C4.02683 4.22665 5.04683 3.37998 6.2735 2.95998C5.8735 3.69998 5.56683 4.49998 5.3535 5.33331ZM8.00016 13.3066C7.44683 12.5066 7.0135 11.62 6.72683 10.6666H9.2735C8.98683 11.62 8.5535 12.5066 8.00016 13.3066ZM9.56016 9.33331H6.44016C6.38016 8.89331 6.3335 8.45331 6.3335 7.99998C6.3335 7.54665 6.38016 7.09998 6.44016 6.66665H9.56016C9.62016 7.09998 9.66683 7.54665 9.66683 7.99998C9.66683 8.45331 9.62016 8.89331 9.56016 9.33331ZM9.72683 13.04C10.1268 12.3 10.4335 11.5 10.6468 10.6666H12.6135C11.9735 11.7666 10.9535 12.62 9.72683 13.04ZM10.9068 9.33331C10.9602 8.89331 11.0002 8.45331 11.0002 7.99998C11.0002 7.54665 10.9602 7.10665 10.9068 6.66665H13.1602C13.2668 7.09331 13.3335 7.53998 13.3335 7.99998C13.3335 8.45998 13.2668 8.90665 13.1602 9.33331H10.9068Z" fill="#B2B3BD"/>
</svg>
