<svg width="120" height="32" viewBox="0 0 120 32" fill="none" xmlns="http://www.w3.org/2000/svg">
<path d="M35.0091 10.2949H37.9273V22.1806H35.0091V10.2949ZM39.0909 17.7098C39.0909 14.7658 40.9091 13.0012 43.6364 13.0012C46.3636 13.0012 48.1818 14.7658 48.1818 17.7098C48.1818 20.6538 46.4273 22.4366 43.6364 22.4366C40.8455 22.4366 39.0909 20.7178 39.0909 17.7098ZM45.2909 17.7098C45.2909 16.0915 44.6636 15.1406 43.6636 15.1406C42.6636 15.1406 42.0455 16.0549 42.0455 17.7098C42.0455 19.3646 42.6636 20.2698 43.6636 20.2698C44.6636 20.2698 45.3091 19.3646 45.3091 17.7189L45.2909 17.7098ZM49.3455 22.7932H52.1636C52.2919 23.0983 52.516 23.3529 52.8016 23.5179C53.0873 23.6831 53.4187 23.7496 53.7455 23.7075C54.8636 23.7075 55.4455 23.104 55.4455 22.208V20.5623H55.4546C55.2137 21.0748 54.8243 21.5019 54.3376 21.7875C53.8507 22.0731 53.2894 22.2038 52.7273 22.1623C50.5909 22.1623 49.1727 20.5258 49.1727 17.7098C49.1727 14.8938 50.5273 13.1383 52.8091 13.1383C53.3856 13.1073 53.9575 13.2568 54.4458 13.5663C54.9343 13.8758 55.3153 14.33 55.5364 14.8663H55.4546V13.2115H58.3455V22.1166C58.3455 24.2652 56.4546 25.6092 53.6727 25.6092C51.1455 25.6 49.5273 24.4389 49.3636 22.8023L49.3455 22.7932ZM55.4546 17.7098C55.4546 16.2743 54.8 15.3692 53.7636 15.3692C52.7273 15.3692 52.0909 16.2835 52.0909 17.7098C52.0909 19.136 52.7182 19.9772 53.7636 19.9772C54.8091 19.9772 55.4546 19.2 55.4546 17.7098ZM59.5 17.7098C59.5 14.7658 61.3182 13.0012 64.0455 13.0012C66.7727 13.0012 68.5909 14.7658 68.5909 17.7098C68.5909 20.6538 66.8273 22.4366 64.0455 22.4366C61.2636 22.4366 59.5182 20.7178 59.5182 17.7098H59.5ZM65.7 17.7098C65.7 16.0915 65.0636 15.1406 64.0727 15.1406C63.0818 15.1406 62.4545 16.0549 62.4545 17.7098C62.4545 19.3646 63.0727 20.2698 64.0727 20.2698C65.0727 20.2698 65.7182 19.3646 65.7182 17.7189L65.7 17.7098ZM69.7727 11.0446C69.76 10.7456 69.8366 10.4497 69.9925 10.1949C70.1484 9.93998 70.3766 9.73792 70.6476 9.61459C70.9187 9.49116 71.2203 9.45221 71.5136 9.50268C71.8068 9.55305 72.0784 9.69056 72.2933 9.89747C72.5082 10.1045 72.6566 10.3712 72.7196 10.6637C72.7824 10.9562 72.7568 11.2609 72.6461 11.5386C72.5354 11.8164 72.3446 12.0544 72.0982 12.2222C71.8518 12.39 71.5612 12.4798 71.2636 12.48C71.0736 12.4849 70.8843 12.4517 70.707 12.3825C70.5297 12.3132 70.3678 12.2091 70.2308 12.0765C70.0938 11.9438 69.9844 11.7851 69.9089 11.6095C69.8334 11.4339 69.7933 11.245 69.7909 11.0538L69.7727 11.0446ZM69.7727 13.2023H72.7273V22.2172H69.8182L69.7727 13.2023ZM83.3546 17.7098C83.3546 20.6446 82.0455 22.3452 79.8182 22.3452C79.248 22.3806 78.6807 22.239 78.193 21.9399C77.7053 21.6406 77.3206 21.1981 77.0909 20.672H77.0364V25.1155H74.1182V13.2298H77.0182V14.8389H77.0727C77.2946 14.3025 77.6755 13.8478 78.1635 13.537C78.6516 13.2261 79.223 13.0742 79.8 13.1018C82.0909 13.0835 83.4091 14.7749 83.4091 17.7189L83.3546 17.7098ZM80.3818 17.7098C80.3818 16.2835 79.7182 15.36 78.6909 15.36C77.6636 15.36 77.0182 16.2743 77.0091 17.7098C77 19.1452 77.6636 20.0503 78.6909 20.0503C79.7182 20.0503 80.4364 19.2 80.4364 17.7189L80.3818 17.7098ZM88.3364 12.992C90.7818 12.992 92.3 14.1532 92.3182 16.0183H89.6546C89.6546 15.3692 89.1182 14.9669 88.3182 14.9669C87.5182 14.9669 87.1364 15.2778 87.1364 15.744C87.1364 16.2103 87.4727 16.3566 88.1455 16.4938L90.0182 16.8778C91.8364 17.2618 92.5636 17.9932 92.5636 19.3555C92.5636 21.184 90.8818 22.4275 88.3818 22.4275C85.8818 22.4275 84.2546 21.2206 84.1364 19.3829H86.9636C87.0455 20.0503 87.5727 20.4435 88.4273 20.4435C89.2818 20.4435 89.6818 20.1692 89.6818 19.6846C89.6818 19.2 89.4091 19.1178 88.7091 18.9715L87.0182 18.6149C85.2636 18.24 84.3455 17.3166 84.3455 15.936C84.4 14.144 85.9273 13.0012 88.3909 13.0012L88.3364 12.992ZM102.336 22.208H99.5091V20.5166H99.4546C99.2964 21.0808 98.9518 21.5739 98.4773 21.9146C98.0027 22.2553 97.4273 22.4233 96.8455 22.3909C96.4064 22.4053 95.9682 22.3261 95.5618 22.1584C95.1555 21.9908 94.7882 21.7386 94.4855 21.4183C94.1818 21.0979 93.95 20.7168 93.8036 20.2998C93.6573 19.8829 93.6 19.4395 93.6364 18.9989V13.2115H96.5545V18.368C96.5545 19.4286 97.1091 20.0046 98.0182 20.0046C98.2318 20.003 98.4418 19.9553 98.6355 19.865C98.8291 19.7746 99.0009 19.6435 99.1391 19.4806C99.2782 19.3176 99.3809 19.1266 99.44 18.9206C99.4982 18.7144 99.5127 18.498 99.4818 18.2858V13.2115H102.391L102.336 22.208ZM103.745 13.2023H106.582V14.9395H106.645C106.802 14.383 107.138 13.8944 107.6 13.5503C108.063 13.2063 108.625 13.026 109.2 13.0378C109.777 12.9873 110.353 13.1552 110.813 13.5085C111.274 13.8619 111.586 14.3755 111.691 14.9486H111.818C112 14.3723 112.365 13.8726 112.859 13.5271C113.352 13.1815 113.945 13.0095 114.545 13.0378C114.945 13.0225 115.343 13.0922 115.713 13.2422C116.084 13.3921 116.418 13.6192 116.695 13.9083C116.973 14.1974 117.185 14.5422 117.321 14.92C117.457 15.2978 117.512 15.7001 117.482 16.1006V22.2172H114.545V16.8503C114.545 15.936 114.118 15.424 113.291 15.424C113.107 15.421 112.925 15.458 112.757 15.5322C112.589 15.6065 112.44 15.7165 112.318 15.8546C112.196 15.9927 112.105 16.1556 112.052 16.3322C111.999 16.5088 111.985 16.6949 112.009 16.8778V22.2172H109.227V16.8229C109.227 15.9086 108.782 15.424 107.982 15.424C107.796 15.4226 107.613 15.461 107.444 15.5367C107.274 15.6125 107.123 15.7238 106.999 15.8632C106.876 16.0026 106.785 16.1669 106.73 16.345C106.675 16.5232 106.658 16.7111 106.682 16.896V22.2172H103.764L103.745 13.2023Z" fill="#F2F2F2"/>
<path d="M29.2364 11.0719C29.2365 9.25221 28.6901 7.47489 27.6688 5.97277C26.6475 4.47066 25.1989 3.31377 23.5128 2.65365C21.8267 1.99353 19.9816 1.86096 18.2194 2.27329C16.457 2.68562 14.8596 3.62364 13.6364 4.96448H2.29092V29.0468H26.2455V17.7919C27.1856 16.9462 27.938 15.9106 28.4534 14.7526C28.9687 13.5947 29.2355 12.3406 29.2364 11.0719ZM24.6273 11.0719C24.6291 11.9439 24.3736 12.7968 23.8933 13.5227C23.4128 14.2486 22.7292 14.8149 21.9286 15.1498C21.1281 15.4848 20.2468 15.5734 19.3962 15.4043C18.5456 15.2354 17.764 14.8164 17.1503 14.2004C16.5365 13.5845 16.1184 12.7993 15.9485 11.9441C15.7787 11.0891 15.865 10.2025 16.1964 9.39676C16.5277 8.59096 17.0894 7.90216 17.8101 7.41753C18.5309 6.93289 19.3785 6.6742 20.2455 6.6742C21.406 6.6742 22.5192 7.13724 23.3406 7.9617C24.1622 8.78617 24.6249 9.90473 24.6273 11.0719ZM21.6364 24.4113H6.90001V9.59991H11.3909C11.3042 10.0859 11.2585 10.5783 11.2545 11.0719C11.257 13.4693 12.205 15.7679 13.8906 17.4631C15.5762 19.1583 17.8616 20.1118 20.2455 20.1142C20.7115 20.1117 21.1766 20.072 21.6364 19.9953V24.4113Z" fill="#F2F2F2"/>
</svg>
