<svg width="120" height="32" viewBox="0 0 120 32" fill="none" xmlns="http://www.w3.org/2000/svg">
<path d="M66.7388 20.4648H69.0917V11.2518H66.7388V20.4648ZM66.7388 9.81505H69.0917V7.62402H66.7388V9.81505Z" fill="#F2F2F2"/>
<path d="M70.6079 23.4819H72.9608V19.4231H72.9951C73.4967 20.2133 74.3101 20.7341 75.5554 20.7341C77.8392 20.7341 79.3963 18.8484 79.3963 15.8672C79.3963 12.9937 77.8911 11.0002 75.5382 11.0002C74.3272 11.0002 73.4967 11.5929 72.926 12.4011H72.874V11.2517H70.6079V23.4819ZM75.0538 18.7047C73.6526 18.7047 72.9088 17.6093 72.9088 15.939C72.9088 14.2868 73.4967 12.9758 74.9675 12.9758C76.4208 12.9758 77.0086 14.197 77.0086 15.939C77.0086 17.6811 76.2477 18.7047 75.0538 18.7047Z" fill="#F2F2F2"/>
<path d="M84.0895 20.7341C86.3041 20.7341 87.8265 19.6207 87.8265 17.7708C87.8265 15.6158 86.183 15.1847 84.695 14.8615C83.432 14.5921 82.2558 14.5202 82.2558 13.7301C82.2558 13.0656 82.8613 12.7064 83.7782 12.7064C84.7818 12.7064 85.3873 13.0656 85.4907 14.0533H87.6186C87.446 12.2035 86.1482 11.0002 83.813 11.0002C81.7886 11.0002 80.1971 11.9521 80.1971 13.9456C80.1971 15.957 81.7543 16.406 83.3457 16.7293C84.5567 16.9807 85.681 17.0705 85.681 17.9505C85.681 18.597 85.0931 19.0101 84.0552 19.0101C82.9996 19.0101 82.273 18.5431 82.1176 17.4835H79.9377C80.076 19.4411 81.5121 20.7341 84.0895 20.7341Z" fill="#F2F2F2"/>
<path d="M96.7592 20.4648V11.2517H94.4063V16.5676C94.4063 17.7889 93.7316 18.6509 92.6246 18.6509C91.621 18.6509 91.1542 18.0582 91.1542 16.9807V11.2517H88.8185V17.3937C88.8185 19.4052 89.9255 20.7162 91.898 20.7162C93.1438 20.7162 93.8356 20.2313 94.4411 19.3873H94.4931V20.4648H96.7592Z" fill="#F2F2F2"/>
<path d="M98.281 20.4647H100.634V15.1129C100.634 13.8917 101.274 13.1015 102.226 13.1015C103.091 13.1015 103.592 13.6402 103.592 14.6819V20.4647H105.945V15.1129C105.945 13.8917 106.551 13.1015 107.537 13.1015C108.402 13.1015 108.904 13.6402 108.904 14.6819V20.4647H111.256V14.2688C111.256 12.2574 110.201 11.0002 108.332 11.0002C107.208 11.0002 106.274 11.6108 105.668 12.6166H105.634C105.201 11.6468 104.302 11.0002 103.177 11.0002C101.949 11.0002 101.084 11.6468 100.6 12.4908H100.548V11.2517H98.281V20.4647Z" fill="#F2F2F2"/>
<path d="M5.41583 20.4648H7.76865V7.62402H5.41583V20.4648Z" fill="#F2F2F2"/>
<path d="M13.5217 20.7341C16.2724 20.7341 18.1581 18.615 18.1581 15.8672C18.1581 13.1194 16.2724 11.0002 13.5217 11.0002C10.7709 11.0002 8.88519 13.1194 8.88519 15.8672C8.88519 18.615 10.7709 20.7341 13.5217 20.7341ZM13.5217 18.8664C12.0684 18.8664 11.2726 17.6631 11.2726 15.8672C11.2726 14.0713 12.0684 12.8501 13.5217 12.8501C14.9576 12.8501 15.7706 14.0713 15.7706 15.8672C15.7706 17.6631 14.9576 18.8664 13.5217 18.8664Z" fill="#F2F2F2"/>
<path d="M23.1616 23.6076C24.4764 23.6076 25.6182 23.2844 26.3621 22.566C27.0195 21.9374 27.4174 21.0574 27.4174 19.7644V11.2517H25.1511V12.2215H25.1165C24.5802 11.4493 23.7671 11.0002 22.6599 11.0002C20.4109 11.0002 18.8193 12.7602 18.8193 15.508C18.8193 18.2917 20.7569 19.908 22.7291 19.908C23.8536 19.908 24.5283 19.4411 25.0473 18.8305H25.0992V19.8362C25.0992 21.0933 24.4591 21.7578 23.127 21.7578C22.0371 21.7578 21.5354 21.3088 21.3451 20.7341H19.0096C19.2518 22.5301 20.7396 23.6076 23.1616 23.6076ZM23.127 17.9505C21.916 17.9505 21.1202 17.0345 21.1202 15.4721C21.1202 13.9276 21.916 12.9578 23.1097 12.9578C24.5283 12.9578 25.2203 14.1072 25.2203 15.4541C25.2203 16.819 24.6148 17.9505 23.127 17.9505Z" fill="#F2F2F2"/>
<path d="M33.1363 20.7341C35.887 20.7341 37.7728 18.615 37.7728 15.8672C37.7728 13.1194 35.887 11.0002 33.1363 11.0002C30.3856 11.0002 28.4999 13.1194 28.4999 15.8672C28.4999 18.615 30.3856 20.7341 33.1363 20.7341ZM33.1363 18.8664C31.6831 18.8664 30.8873 17.6631 30.8873 15.8672C30.8873 14.0713 31.6831 12.8501 33.1363 12.8501C34.5722 12.8501 35.3854 14.0713 35.3854 15.8672C35.3854 17.6631 34.5722 18.8664 33.1363 18.8664Z" fill="#F2F2F2"/>
<path d="M112.111 9.73927C112.111 9.32599 112.434 8.99097 112.832 8.99097H114.274C114.672 8.99097 114.995 9.32599 114.995 9.73927C114.995 10.1525 114.672 10.4876 114.274 10.4876H112.832C112.434 10.4876 112.111 10.1525 112.111 9.73927Z" fill="#F2F2F2"/>
<path fill-rule="evenodd" clip-rule="evenodd" d="M52.0415 5C57.6148 5 62.1334 9.69035 62.1334 15.4762C62.1334 21.262 57.6148 25.9524 52.0415 25.9524C46.468 25.9524 41.9498 21.262 41.9498 15.4762C41.9498 9.69035 46.468 5 52.0415 5ZM51.6767 5.78393C50.5254 5.95212 49.4292 6.91247 48.5782 8.51864C48.3313 8.98453 48.1086 9.49924 47.9145 10.055C49.0717 9.75314 50.3428 9.57517 51.6767 9.54765V5.78393ZM47.0616 10.3066C47.303 9.52026 47.5982 8.79678 47.939 8.15367C48.3608 7.35745 48.8614 6.66988 49.4255 6.14178C46.3582 7.06655 43.9405 9.57641 43.0496 12.7606C43.5583 12.175 44.2207 11.6553 44.9877 11.2174C45.6072 10.8637 46.3041 10.5571 47.0616 10.3066ZM46.8192 11.192C46.5284 12.3932 46.357 13.7127 46.3305 15.0975H42.7049C42.8669 13.9024 43.792 12.7643 45.3393 11.881C45.7881 11.6247 46.2839 11.3935 46.8192 11.192ZM47.0602 15.0975C47.0903 13.5863 47.2999 12.1675 47.6467 10.9139C48.8542 10.554 50.221 10.3364 51.6767 10.3051V11.9409C51.1337 13.3842 50.026 14.534 48.6356 15.0975H47.0602ZM46.3305 15.8549H42.7049C42.8669 17.05 43.792 18.188 45.3393 19.0714C45.7881 19.3277 46.2839 19.5589 46.8192 19.7604C46.5284 18.5592 46.357 17.2396 46.3305 15.8549ZM47.6467 20.0385C47.2999 18.7849 47.0903 17.3661 47.0602 15.8549H48.6356C50.026 16.4184 51.1337 17.5682 51.6767 19.0115V20.6473C50.221 20.616 48.8542 20.3984 47.6467 20.0385ZM47.0616 20.6458C46.3041 20.3952 45.6072 20.0887 44.9877 19.735C44.2207 19.2971 43.5583 18.7773 43.0496 18.1918C43.9405 21.376 46.3582 23.8858 49.4255 24.8106C48.8614 24.2825 48.3608 23.5949 47.939 22.7987C47.5982 22.1556 47.303 21.4321 47.0616 20.6458ZM51.6767 25.1684C50.5254 25.0002 49.4292 24.0399 48.5782 22.4337C48.3313 21.9679 48.1086 21.4531 47.9145 20.8974C49.0717 21.1992 50.3428 21.3772 51.6767 21.4047V25.1684ZM54.6574 24.8106C55.2215 24.2825 55.7221 23.5949 56.144 22.7987C56.4846 22.1556 56.7802 21.4321 57.0214 20.6458C57.7788 20.3952 58.4757 20.0887 59.0953 19.735C59.8623 19.2971 60.5248 18.7773 61.0334 18.1918C60.1423 21.376 57.7248 23.8858 54.6574 24.8106ZM56.1687 20.8974C55.9744 21.4531 55.7514 21.9679 55.5046 22.4337C54.6538 24.0399 53.5575 25.0002 52.4062 25.1684V21.4047C53.7402 21.3772 55.0113 21.1992 56.1687 20.8974ZM57.2636 19.7604C57.799 19.5589 58.295 19.3277 58.7436 19.0714C60.2912 18.1881 61.2161 17.05 61.378 15.8549H57.7526C57.7258 17.2396 57.5543 18.5592 57.2636 19.7604ZM57.0229 15.8549C56.9927 17.3661 56.7833 18.7849 56.4361 20.0385C55.2287 20.3984 53.862 20.616 52.4062 20.6473V19.0127C52.9492 17.5689 54.0571 16.4186 55.4478 15.8549H57.0229ZM57.7526 15.0975H61.378C61.2161 13.9024 60.2912 12.7643 58.7436 11.881C58.295 11.6247 57.799 11.3935 57.2636 11.192C57.5543 12.3932 57.7258 13.7127 57.7526 15.0975ZM56.4361 10.9139C56.7833 12.1675 56.9927 13.5863 57.0229 15.0975H55.4479C54.0571 14.5338 52.9492 13.3835 52.4062 11.9397V10.3051C53.862 10.3364 55.2287 10.554 56.4361 10.9139ZM57.0214 10.3066C57.7788 10.5571 58.4757 10.8637 59.0953 11.2174C59.8623 11.6553 60.5248 12.175 61.0334 12.7606C60.1423 9.57641 57.7248 7.06655 54.6574 6.14178C55.2215 6.66988 55.7221 7.35745 56.144 8.15367C56.4846 8.79678 56.7802 9.52026 57.0214 10.3066ZM52.4062 5.78393C53.5575 5.95212 54.6538 6.91247 55.5046 8.51864C55.7514 8.98453 55.9744 9.49924 56.1687 10.055C55.0113 9.75314 53.7402 9.57517 52.4062 9.54765V5.78393Z" fill="#F2F2F2"/>
</svg>
