<svg width="120" height="32" viewBox="0 0 120 32" fill="none" xmlns="http://www.w3.org/2000/svg">
<path fill-rule="evenodd" clip-rule="evenodd" d="M18.9165 11.1209C18.0209 10.5453 16.9681 10.2381 15.8911 10.2381V5C18.0451 5 20.1508 5.61442 21.9419 6.76556C23.7329 7.91669 25.1288 9.55285 25.9531 11.4671C26.7774 13.3814 26.9931 15.4878 26.5729 17.52C26.1527 19.5522 25.1154 21.4189 23.5922 22.884C22.0691 24.3491 20.1285 25.3469 18.0158 25.7511C15.9032 26.1553 13.7133 25.9478 11.7232 25.1549C9.73316 24.362 8.0322 23.0193 6.83548 21.2964C5.63875 19.5736 5 17.5482 5 15.4762H10.4455C10.4455 16.5122 10.7649 17.5249 11.3633 18.3863C11.9616 19.2477 12.8121 19.9191 13.8072 20.3156C14.8022 20.712 15.8971 20.8157 16.9535 20.6136C18.0098 20.4115 18.9801 19.9126 19.7417 19.1801C20.5032 18.4475 21.0219 17.5142 21.232 16.4981C21.4421 15.482 21.3343 14.4288 20.9221 13.4717C20.5099 12.5145 19.812 11.6964 18.9165 11.1209Z" fill="#F2F2F2"/>
<path fill-rule="evenodd" clip-rule="evenodd" d="M10.4455 5C10.4455 5.68788 10.3047 6.36902 10.031 7.00454C9.75736 7.64005 9.35625 8.21749 8.85058 8.7039C8.34492 9.1903 7.74461 9.57613 7.08392 9.83937C6.42323 10.1026 5.71512 10.2381 5 10.2381L5 15.4762C6.43024 15.4762 7.84647 15.2052 9.16784 14.6787C10.4892 14.1523 11.6898 13.3806 12.7011 12.4078C13.7125 11.435 14.5147 10.2801 15.0621 9.00907C15.6094 7.73803 15.8911 6.37575 15.8911 5L10.4455 5Z" fill="#F2F2F2"/>
<path d="M73.4063 12.5703H70.7642V20.6434H73.4063V12.5703Z" fill="#F2F2F2"/>
<path d="M71.0583 11.0588C71.3344 11.3246 71.6796 11.4574 72.094 11.4574C72.5084 11.4574 72.8482 11.3246 73.1129 11.0588C73.3781 10.7819 73.5104 10.4497 73.5104 10.0621C73.5104 9.66344 73.3781 9.3312 73.1129 9.06542C72.8482 8.79963 72.5084 8.66675 72.094 8.66675C71.6796 8.66675 71.3344 8.79963 71.0583 9.06542C70.7931 9.3312 70.6608 9.66344 70.6608 10.0621C70.6608 10.4497 70.7931 10.7819 71.0583 11.0588Z" fill="#F2F2F2"/>
<path d="M32.8574 20.6434V8.91577H35.5687V18.3511H40.974V20.6434H32.8574Z" fill="#F2F2F2"/>
<path fill-rule="evenodd" clip-rule="evenodd" d="M45.8565 20.8263C44.9931 20.8263 44.2102 20.6436 43.5079 20.2781C42.8172 19.9016 42.2703 19.3922 41.8673 18.7498C41.4644 18.1075 41.2629 17.3877 41.2629 16.5904C41.2629 15.793 41.4644 15.0788 41.8673 14.4475C42.2703 13.8163 42.8172 13.3179 43.5079 12.9525C44.1987 12.576 44.9816 12.3877 45.8565 12.3877C46.7315 12.3877 47.5144 12.5705 48.2051 12.9359C48.8959 13.3013 49.4428 13.8052 49.8457 14.4475C50.2487 15.0788 50.4502 15.793 50.4502 16.5904C50.4502 17.3877 50.2487 18.1075 49.8457 18.7498C49.4428 19.3922 48.8959 19.9016 48.2051 20.2781C47.5144 20.6436 46.7315 20.8263 45.8565 20.8263ZM45.8565 18.5173C46.2365 18.5173 46.5703 18.4398 46.8582 18.2847C47.146 18.1186 47.3647 17.8916 47.5144 17.6037C47.6756 17.3047 47.7562 16.9669 47.7562 16.5904C47.7562 16.2139 47.6756 15.8872 47.5144 15.6103C47.3532 15.3224 47.1287 15.1009 46.8409 14.9459C46.5646 14.7797 46.2365 14.6967 45.8565 14.6967C45.4881 14.6967 45.16 14.7797 44.8722 14.9459C44.5844 15.1009 44.3599 15.3224 44.1987 15.6103C44.0375 15.8983 43.957 16.2305 43.957 16.607C43.957 16.9724 44.0375 17.3047 44.1987 17.6037C44.3599 17.8916 44.5844 18.1186 44.8722 18.2847C45.16 18.4398 45.4881 18.5173 45.8565 18.5173Z" fill="#F2F2F2"/>
<path fill-rule="evenodd" clip-rule="evenodd" d="M52.5428 23.7997C53.245 24.1098 54.0567 24.2648 54.9778 24.2648C55.8757 24.2648 56.6759 24.0932 57.3782 23.7499C58.0805 23.4065 58.633 22.9304 59.036 22.3213C59.4389 21.7122 59.6407 20.9924 59.6407 20.1618V12.5704H57.05V13.1129C56.8573 12.9569 56.6385 12.8259 56.3938 12.7199C55.9448 12.5095 55.4325 12.4043 54.8569 12.4043C54.0855 12.4043 53.4005 12.5815 52.8018 12.9359C52.2031 13.2792 51.7311 13.7554 51.3857 14.3644C51.0403 14.9625 50.8677 15.638 50.8677 16.3911C50.8677 17.133 51.0403 17.8085 51.3857 18.4176C51.7311 19.0267 52.2031 19.5085 52.8018 19.8628C53.4005 20.2172 54.0855 20.3944 54.8569 20.3944C55.421 20.3944 55.9333 20.2892 56.3938 20.0788C56.6169 19.9769 56.8184 19.8567 56.9982 19.7184V20.2283C56.9982 20.7931 56.8083 21.2305 56.4283 21.5406C56.06 21.8507 55.5476 22.0057 54.8914 22.0057C54.3618 22.0057 53.9071 21.9171 53.5271 21.7399C53.1587 21.5627 52.8248 21.3025 52.5255 20.9592L50.9022 22.5206C51.3051 23.0743 51.852 23.5007 52.5428 23.7997ZM56.3075 17.9027C56.0426 18.0577 55.7261 18.1352 55.3576 18.1352C54.9892 18.1352 54.6669 18.0577 54.3906 17.9027C54.1257 17.7476 53.9185 17.5372 53.7689 17.2714C53.6192 16.9946 53.5444 16.7011 53.5444 16.3911C53.5444 16.0588 53.6192 15.7598 53.7689 15.494C53.9185 15.2283 54.1315 15.0178 54.4078 14.8628C54.6841 14.7077 55.0007 14.6302 55.3576 14.6302C55.7261 14.6302 56.0426 14.7077 56.3075 14.8628C56.5838 15.0178 56.791 15.2283 56.9292 15.494C57.0788 15.7598 57.1536 16.0588 57.1536 16.3911C57.1536 16.7233 57.0788 17.0223 56.9292 17.288C56.791 17.5428 56.5838 17.7476 56.3075 17.9027Z" fill="#F2F2F2"/>
<path fill-rule="evenodd" clip-rule="evenodd" d="M65.201 20.8263C64.3374 20.8263 63.5543 20.6436 62.8524 20.2781C62.1613 19.9016 61.6146 19.3922 61.2116 18.7498C60.8087 18.1075 60.6072 17.3877 60.6072 16.5904C60.6072 15.793 60.8087 15.0788 61.2116 14.4475C61.6146 13.8163 62.1613 13.3179 62.8524 12.9525C63.5429 12.576 64.3259 12.3877 65.201 12.3877C66.0756 12.3877 66.8587 12.5705 67.5492 12.9359C68.2402 13.3013 68.7869 13.8052 69.1899 14.4475C69.5929 15.0788 69.7944 15.793 69.7944 16.5904C69.7944 17.3877 69.5929 18.1075 69.1899 18.7498C68.7869 19.3922 68.2402 19.9016 67.5492 20.2781C66.8587 20.6436 66.0756 20.8263 65.201 20.8263ZM65.201 18.5173C65.5806 18.5173 65.9144 18.4398 66.2025 18.2847C66.49 18.1186 66.7089 17.8916 66.8587 17.6037C67.0199 17.3047 67.1004 16.9669 67.1004 16.5904C67.1004 16.2139 67.0199 15.8872 66.8587 15.6103C66.6975 15.3224 66.4731 15.1009 66.1851 14.9459C65.909 14.7797 65.5806 14.6967 65.201 14.6967C64.8324 14.6967 64.504 14.7797 64.2165 14.9459C63.9284 15.1009 63.7041 15.3224 63.5429 15.6103C63.3817 15.8983 63.3011 16.2305 63.3011 16.607C63.3011 16.9724 63.3817 17.3047 63.5429 17.6037C63.7041 17.8916 63.9284 18.1186 64.2165 18.2847C64.504 18.4398 64.8324 18.5173 65.201 18.5173Z" fill="#F2F2F2"/>
<path fill-rule="evenodd" clip-rule="evenodd" d="M79.757 20.8097C79.1934 20.8097 78.6749 20.7045 78.2028 20.4941C77.9545 20.3833 77.7301 20.2511 77.5297 20.0974V24.0489H74.9219V12.5704H77.5641V13.1276C77.7557 12.9768 77.9687 12.8464 78.2028 12.7365C78.6749 12.515 79.1934 12.4043 79.757 12.4043C80.5515 12.4043 81.254 12.5871 81.8639 12.9525C82.4857 13.3179 82.9693 13.8163 83.3145 14.4475C83.6718 15.0788 83.8498 15.7986 83.8498 16.607C83.8498 17.4154 83.6718 18.1352 83.3145 18.7665C82.9693 19.3977 82.4857 19.896 81.8639 20.2615C81.254 20.627 80.5515 20.8097 79.757 20.8097ZM79.274 18.5173C79.6535 18.5173 79.9819 18.4342 80.258 18.2681C80.546 18.102 80.7704 17.875 80.9316 17.5871C81.0928 17.2991 81.1734 16.9724 81.1734 16.607C81.1734 16.2305 81.0928 15.8983 80.9316 15.6103C80.7704 15.3224 80.546 15.1009 80.258 14.9459C79.9819 14.7797 79.6595 14.6967 79.2908 14.6967C78.9227 14.6967 78.5944 14.7797 78.3068 14.9459C78.0302 15.1009 77.8118 15.3224 77.6506 15.6103C77.4895 15.8983 77.4089 16.2305 77.4089 16.607C77.4089 16.9724 77.4835 17.2991 77.6332 17.5871C77.7944 17.875 78.0188 18.102 78.3068 18.2681C78.5944 18.4342 78.9167 18.5173 79.274 18.5173Z" fill="#F2F2F2"/>
<path d="M86.4359 20.6602C86.9195 20.782 87.4085 20.8429 87.9035 20.8429C88.9512 20.8429 89.78 20.6104 90.3905 20.1452C91.0118 19.6801 91.3227 19.0544 91.3227 18.2681C91.3227 17.7587 91.2253 17.349 91.0292 17.0389C90.8337 16.7178 90.5805 16.463 90.2696 16.2748C89.9586 16.0865 89.6303 15.937 89.285 15.8263C88.9398 15.7155 88.6114 15.6214 88.301 15.5439C87.9901 15.4663 87.7368 15.3778 87.5408 15.2781C87.3453 15.1784 87.2473 15.0455 87.2473 14.8794C87.2473 14.7244 87.3224 14.6081 87.4717 14.5306C87.6214 14.442 87.8458 14.3977 88.1453 14.3977C88.4562 14.3977 88.7726 14.4586 89.095 14.5804C89.4288 14.7022 89.7283 14.9127 89.9929 15.2117L91.4954 13.7499C91.1158 13.2847 90.6208 12.9359 90.0104 12.7034C89.4119 12.4597 88.7557 12.3379 88.0418 12.3379C87.3627 12.3379 86.7697 12.4486 86.2633 12.6701C85.7563 12.8916 85.3648 13.1962 85.0887 13.5837C84.8126 13.9602 84.6743 14.4088 84.6743 14.9293C84.6743 15.4165 84.7723 15.8208 84.9678 16.1419C85.1633 16.4519 85.417 16.6956 85.7274 16.8728C86.0384 17.05 86.3667 17.1884 86.712 17.288C87.0572 17.3877 87.3856 17.4819 87.6966 17.5705C88.0069 17.648 88.2607 17.7421 88.4562 17.8529C88.6637 17.9526 88.7671 18.102 88.7671 18.3014C88.7671 18.4564 88.6806 18.5782 88.5079 18.6668C88.3468 18.7554 88.111 18.7997 87.8 18.7997C87.3508 18.7997 86.9364 18.7222 86.5568 18.5671C86.1767 18.401 85.8483 18.174 85.5723 17.8861L84.0698 19.3479C84.3579 19.6469 84.7031 19.9127 85.1061 20.1452C85.5205 20.3667 85.9638 20.5383 86.4359 20.6602Z" fill="#F2F2F2"/>
<path d="M96.141 20.8261C95.3699 20.8261 94.6848 20.6766 94.0864 20.3776C93.4988 20.0675 93.0387 19.6467 92.7048 19.1152C92.3705 18.5725 92.2039 17.9524 92.2039 17.2547V12.5703H94.846V17.2215C94.846 17.4983 94.8918 17.7364 94.9844 17.9357C95.0878 18.1351 95.2376 18.2902 95.4331 18.4009C95.6291 18.5116 95.8649 18.567 96.141 18.567C96.5325 18.567 96.8435 18.4507 97.0738 18.2181C97.3042 17.9745 97.4191 17.6423 97.4191 17.2215V12.5703H100.061V17.2381C100.061 17.9469 99.8946 18.5725 99.5602 19.1152C99.2264 19.6467 98.7663 20.0675 98.1787 20.3776C97.5917 20.6766 96.9126 20.8261 96.141 20.8261Z" fill="#F2F2F2"/>
<path d="M104.017 12.5704H101.375V20.6436H104.017V15.9259C104.017 15.6491 104.075 15.4165 104.19 15.2283C104.316 15.04 104.484 14.896 104.691 14.7964C104.898 14.6856 105.134 14.6302 105.398 14.6302C105.779 14.6302 106.095 14.7465 106.348 14.9791C106.613 15.2005 106.746 15.5162 106.746 15.9259V20.6436H109.388V15.9259C109.388 15.6491 109.446 15.4165 109.56 15.2283C109.687 15.04 109.854 14.896 110.061 14.7964C110.268 14.6856 110.505 14.6302 110.769 14.6302C111.15 14.6302 111.466 14.7465 111.719 14.9791C111.984 15.2005 112.116 15.5162 112.116 15.9259V20.6436H114.759V15.6435C114.759 14.968 114.609 14.3922 114.31 13.916C114.021 13.4287 113.625 13.0577 113.118 12.803C112.623 12.5372 112.053 12.4043 111.408 12.4043C110.752 12.4043 110.159 12.5427 109.63 12.8196C109.285 12.996 108.985 13.2236 108.727 13.5025C108.487 13.2108 108.195 12.9721 107.851 12.7864C107.39 12.5317 106.867 12.4043 106.28 12.4043C105.658 12.4043 105.1 12.5317 104.605 12.7864C104.389 12.8923 104.193 13.0192 104.017 13.1671V12.5704Z" fill="#F2F2F2"/>
</svg>
