<svg width="120" height="32" viewBox="0 0 120 32" fill="none" xmlns="http://www.w3.org/2000/svg">
<path fill-rule="evenodd" clip-rule="evenodd" d="M21.2741 5.4375V27H16V5.4375H21.2741Z" fill="#F2F2F2"/>
<path fill-rule="evenodd" clip-rule="evenodd" d="M23.9111 5.4375H35.1185C38.7595 5.4375 41.7111 8.65545 41.7111 12.625C41.7111 16.5946 38.7595 19.8125 35.1185 19.8125H29.1852V27H23.9111V5.4375ZM29.1852 14.0625H35.1185C35.8468 14.0625 36.4371 13.4189 36.4371 12.625C36.4371 11.8311 35.8468 11.1875 35.1185 11.1875H29.1852V14.0625Z" fill="#F2F2F2"/>
<path fill-rule="evenodd" clip-rule="evenodd" d="M61.4889 5.4375V16.5781C61.4889 19.1583 63.4074 21.25 65.7741 21.25C68.1407 21.25 70.0593 19.1583 70.0593 16.5781V5.4375H75.3335V16.5781C75.3335 22.334 71.0536 27 65.7741 27C60.4946 27 56.2148 22.334 56.2148 16.5781V5.4375H61.4889Z" fill="#F2F2F2"/>
<path fill-rule="evenodd" clip-rule="evenodd" d="M43.6889 15.5C43.6889 9.94263 47.8211 5.4375 52.9185 5.4375H54.237V11.1875H52.9185C50.7339 11.1875 48.9629 13.1183 48.9629 15.5V16.2188C48.9629 22.173 44.5355 27 39.074 27H38.4148V21.25H39.074C41.6227 21.25 43.6889 18.9974 43.6889 16.2188V15.5Z" fill="#F2F2F2"/>
<path d="M105 6.15625C105 7.34712 104.115 8.3125 103.022 8.3125C101.93 8.3125 101.044 7.34712 101.044 6.15625C101.044 4.96538 101.93 4 103.022 4C104.115 4 105 4.96538 105 6.15625Z" fill="#F2F2F2"/>
<path d="M80.9963 27L83.5131 15.5104L85.3842 22.4226C86.4996 26.5452 91.8559 26.5452 92.9718 22.4226L94.8424 15.5104L97.3591 27H102.781L98.8242 8.93321C97.8831 4.63678 92.3299 4.47771 91.1829 8.71438L89.178 16.1229L87.1726 8.71439C86.0261 4.47773 80.4723 4.63676 79.5312 8.93321L75.5742 27H80.9963Z" fill="#F2F2F2"/>
</svg>
