<svg width="120" height="32" viewBox="0 0 120 32" fill="none" xmlns="http://www.w3.org/2000/svg">
<path d="M43.1915 3C40.6922 3 38.2952 4.04871 36.5279 5.91543L30.7602 12.0076C28.9929 13.8743 28 16.4061 28 19.0461C28 24.5435 32.2192 29 37.4238 29C39.9232 29 42.3202 27.9512 44.0875 26.0845L48.077 21.8705C48.077 21.8705 48.0771 21.8706 48.077 21.8705L59.7013 9.59239C60.5454 8.70086 61.6902 8.2 62.8839 8.2C64.8823 8.2 66.5766 9.57576 67.164 11.4795L70.8326 7.60457C69.159 4.83589 66.2244 3 62.8839 3C60.3845 3 57.9875 4.04871 56.2202 5.91543L40.6064 22.4076C39.7623 23.2992 38.6175 23.8 37.4238 23.8C34.9381 23.8 32.9231 21.6716 32.9231 19.0461C32.9231 17.7852 33.3973 16.5761 34.2413 15.6845L40.009 9.59239C40.8531 8.70086 41.9979 8.2 43.1915 8.2C45.1901 8.2 46.8843 9.57582 47.4717 11.4796L51.1403 7.60466C49.4667 4.83595 46.5322 3 43.1915 3Z" fill="#F2F2F2"/>
<path d="M60.2986 22.4076C59.4546 23.2992 58.3098 23.8 57.1161 23.8C55.1179 23.8 53.4238 22.4246 52.8362 20.5211L49.1677 24.396C50.8414 27.1643 53.7758 29 57.1161 29C59.6155 29 62.0124 27.9512 63.7797 26.0845L79.3936 9.59239C80.2377 8.70086 81.3825 8.2 82.5761 8.2C85.0619 8.2 87.0769 10.3284 87.0769 12.9539C87.0769 14.2148 86.6027 15.4239 85.7587 16.3155L79.9909 22.4076C79.1469 23.2992 78.0021 23.8 76.8084 23.8C74.8101 23.8 73.1159 22.4243 72.5284 20.5207L68.8599 24.3957C70.5335 27.1642 73.4679 29 76.8084 29C79.3078 29 81.7047 27.9512 83.472 26.0845L89.2398 19.9924C91.0071 18.1257 92 15.5939 92 12.9539C92 7.45652 87.7808 3 82.5761 3C80.0768 3 77.6798 4.04871 75.9125 5.91543L60.2986 22.4076Z" fill="#F2F2F2"/>
</svg>
