<svg width="320" height="320" viewBox="0 0 320 320" fill="none" xmlns="http://www.w3.org/2000/svg">
<rect width="320" height="320" rx="72" fill="#172527"/>
<path d="M274.801 176.756L238.449 199.227C224.048 228.006 194.287 247.756 159.923 247.756C147.9 247.756 136.434 245.342 126.009 240.964C115.418 236.514 105.868 230.053 97.8691 222.054L221.977 97.946L260.329 59.5942C248.271 47.5242 234.047 37.6315 218.297 30.5197C200.488 22.473 180.726 18 159.923 18C125.772 18 94.4374 30.0582 69.9424 50.1512C53.1154 63.9488 39.5071 81.545 30.4427 101.626C22.3961 119.435 17.9231 139.197 17.9231 160C17.9231 180.803 22.3961 200.565 30.4427 218.374C37.5546 234.124 47.4591 248.348 59.5172 260.406C85.2192 286.108 120.719 302 159.923 302C180.726 302 200.488 297.527 218.297 289.492C258.376 271.387 288.551 235.224 298.444 191.382C300.716 181.288 301.923 170.792 301.923 160.012L274.801 176.768V176.756Z" fill="#66FF8E"/>
</svg>
