<svg width="120" height="32" viewBox="0 0 120 32" fill="none" xmlns="http://www.w3.org/2000/svg">
<path d="M16.2737 26.26H36.104V5.73999H16.2737V26.26ZM32.2871 14.0256H28.0969V9.68959H32.2871V14.0256ZM20.0897 9.68959H24.2823V17.9744H32.2871V22.3104H20.0897V9.68959ZM49.0172 5.73999C47.0561 5.73999 45.1391 6.34173 43.5086 7.46912C41.8781 8.5965 40.6072 10.1989 39.8568 12.0737C39.1063 13.9485 38.91 16.0113 39.2926 18.0016C39.6752 19.9918 40.6194 21.82 42.0061 23.2549C43.3927 24.6898 45.1595 25.6669 47.0828 26.0629C49.0062 26.4587 50.9998 26.2556 52.8115 25.479C54.6233 24.7025 56.1718 23.3874 57.2613 21.7001C58.3508 20.0129 58.9323 18.0292 58.9323 16C58.9292 13.2798 57.8836 10.672 56.0248 8.74859C54.166 6.82515 51.6459 5.74317 49.0172 5.73999ZM49.0172 22.3104C47.8111 22.3104 46.632 21.9403 45.6291 21.2469C44.6263 20.5535 43.8446 19.568 43.3831 18.4149C42.9215 17.2618 42.8008 15.993 43.036 14.7689C43.2714 13.5448 43.8522 12.4204 44.705 11.5379C45.5579 10.6553 46.6445 10.0543 47.8275 9.81085C49.0104 9.56736 50.2365 9.69233 51.3509 10.1699C52.4652 10.6476 53.4177 11.4564 54.0877 12.4941C54.7578 13.5318 55.1155 14.7519 55.1155 16C55.113 17.6729 54.4697 19.2765 53.3266 20.4593C52.1835 21.6422 50.6338 22.3078 49.0172 22.3104ZM94.4134 5.73999C92.452 5.73984 90.5352 6.34144 88.9046 7.46873C87.274 8.59601 86.0031 10.1983 85.2524 12.0731C84.5019 13.9478 84.3054 16.0109 84.6879 18.0011C85.0704 19.9914 86.0146 21.8197 87.4013 23.2546C88.7879 24.6896 90.5546 25.6669 92.4783 26.0628C94.401 26.4587 96.3949 26.2556 98.207 25.4791C100.018 24.7025 101.567 23.3875 102.656 21.7002C103.746 20.0129 104.328 18.0293 104.328 16C104.325 13.28 103.279 10.6723 101.421 8.74887C99.5623 6.82545 97.042 5.74338 94.4134 5.73999ZM94.4134 22.3104C93.2073 22.3105 92.0284 21.9405 91.0252 21.2473C90.0222 20.554 89.2404 19.5685 88.7787 18.4154C88.317 17.2624 88.1962 15.9935 88.4314 14.7693C88.6666 13.5453 89.2474 12.4208 90.1002 11.5381C90.953 10.6555 92.0399 10.0545 93.2228 9.8109C94.4057 9.56735 95.6318 9.69227 96.7459 10.1699C97.8607 10.6475 98.8132 11.4563 99.4834 12.4941C100.153 13.5318 100.511 14.7519 100.511 16C100.509 17.6727 99.8654 19.2761 98.7219 20.459C97.5793 21.6419 96.03 22.3077 94.4134 22.3104ZM71.7149 5.73999C69.7538 5.73999 67.8368 6.34173 66.2064 7.46912C64.5758 8.5965 63.3049 10.1989 62.5545 12.0737C61.804 13.9485 61.6077 16.0113 61.9903 18.0016C62.3729 19.9918 63.3172 21.82 64.7038 23.2549C66.0905 24.6898 67.8572 25.6669 69.7805 26.0629C71.7039 26.4587 73.6975 26.2556 75.5093 25.479C77.321 24.7025 78.8695 23.3874 79.959 21.7001C81.0485 20.0129 81.63 18.0292 81.63 16C81.6269 13.2798 80.5813 10.672 78.7225 8.74859C76.8637 6.82515 74.3436 5.74317 71.7149 5.73999ZM71.7149 22.3104C70.5911 22.3109 69.4891 21.9902 68.5304 21.3836C67.5717 20.7769 66.7936 19.9081 66.282 18.8727C65.7705 17.8373 65.5453 16.6758 65.6315 15.5165C65.7176 14.357 66.1116 13.2448 66.77 12.3025C67.4285 11.3602 68.3257 10.6245 69.3627 10.1766C70.3998 9.72863 71.5362 9.58593 72.6467 9.76418C73.7572 9.94245 74.7984 10.4347 75.6555 11.1867C76.5127 11.9387 77.1523 12.9212 77.504 14.0256H71.7149V17.9744H77.504C77.1012 19.2346 76.3253 20.3317 75.2862 21.11C74.2472 21.8883 72.9977 22.3082 71.7149 22.3104Z" fill="#F2F2F2"/>
</svg>
