<svg width="32" height="32" viewBox="0 0 32 32" fill="none" xmlns="http://www.w3.org/2000/svg">
<g clip-path="url(#clip0_389_23)">
<path d="M10.0655 28.9996C12.5224 29.0151 14.9579 28.5426 17.2308 27.6096C19.5037 26.6766 21.5687 25.3017 23.3061 23.5645C25.0434 21.8274 26.4185 19.7626 27.3516 17.49C28.2847 15.2174 28.7573 12.7821 28.7418 10.3254C28.7418 10.0346 28.7418 9.75824 28.7418 9.46737C30.0154 8.53437 31.1178 7.38786 32 6.07867C30.8008 6.60311 29.5318 6.95093 28.2327 7.11128C29.6101 6.29069 30.6435 4.99904 31.1418 3.47534C29.8582 4.24534 28.4506 4.78665 26.9818 5.07515C25.9926 4.02126 24.6836 3.32271 23.2574 3.08758C21.8312 2.85245 20.3672 3.09386 19.092 3.77444C17.8168 4.45502 16.8014 5.53684 16.2031 6.85251C15.6047 8.16818 15.4566 9.64436 15.7818 11.0526C13.1724 10.9246 10.6192 10.2484 8.28852 9.06815C5.95782 7.8879 3.90187 6.23004 2.25455 4.20253C1.42389 5.64407 1.17211 7.34736 1.5502 8.96753C1.92828 10.5877 2.90797 12.0037 4.29091 12.9288C3.27071 12.8894 2.27411 12.6104 1.38182 12.1143V12.187C1.37275 13.6935 1.88032 15.1576 2.81993 16.3353C3.75954 17.513 5.07443 18.3331 6.54545 18.659C5.59656 18.9142 4.60261 18.954 3.63636 18.7754C4.06223 20.0601 4.87517 21.1817 5.9637 21.9863C7.05223 22.7909 8.36304 23.2391 9.71636 23.2694C7.40249 25.1318 4.52668 26.1569 1.55636 26.1781C1.03557 26.1631 0.515996 26.1194 0 26.0472C3.00648 27.9625 6.50066 28.9723 10.0655 28.956" fill="white"/>
</g>
<defs>
<clipPath id="clip0_389_23">
<rect width="32" height="32" fill="white"/>
</clipPath>
</defs>
</svg>
