<svg width="1024" height="277" viewBox="0 0 1024 277" fill="none" xmlns="http://www.w3.org/2000/svg">
<path d="M0 194.598V0.493408H34.0966V125.867V194.596L0 194.598ZM121.377 53.7824C77.6604 53.7824 47.4077 87.3948 47.4077 125.867C47.4077 168.806 80.3188 198.384 121.716 198.384C161.004 198.384 195.097 169.349 195.097 125.775C195.097 89.1328 166.848 53.7824 121.377 53.7824ZM120.975 86.675C143.853 86.675 160.692 104.483 160.692 125.991C160.692 148.796 142.126 165.43 121.592 165.43C97.3296 165.43 82.0605 146.2 82.0605 126.052C82.0605 103.969 99.2996 86.675 120.975 86.675ZM280.765 53.7824C237.049 53.7824 206.797 87.3948 206.797 125.867C206.797 168.806 239.708 198.384 281.105 198.384C320.394 198.384 354.486 169.349 354.486 125.775C354.486 100.115 343.374 88.729 343.374 88.729L352.825 85.4885V57.8156H304.398C304.398 57.8156 293.9 53.7824 280.765 53.7824ZM280.364 86.675C303.242 86.675 320.081 104.483 320.081 125.991C320.081 148.796 301.515 165.43 280.981 165.43C256.719 165.43 241.449 146.2 241.449 126.052C241.449 103.969 258.689 86.675 280.364 86.675ZM319.84 204.085C319.84 226.889 301.274 243.648 280.74 243.648C256.478 243.648 241.147 224.233 241.147 204.085H206.556C206.556 247.023 239.467 276.602 280.864 276.602C320.152 276.602 354.245 247.66 354.245 204.085H319.84ZM535.784 194.598V88.4536H517.5V57.8156H535.784V15.8133H569.88V57.8156H588.658V88.4536H569.881V194.597L535.784 194.598Z" fill="#DDE1E6"/>
<path d="M665.314 53.6901C621.39 53.6901 593.075 87.3199 593.075 127.103C593.075 168.214 621.484 198.477 666.025 198.477C707.572 198.477 728.01 172.534 728.01 172.534L705.216 149.71C705.216 149.71 688.007 168.272 666.456 168.272C648.492 168.272 634.128 158.245 629.117 139.859H735.359V130.469C735.359 93.0063 713.677 53.6901 665.314 53.6901ZM664.233 83.7109C679.939 83.7109 696.003 92.1128 699.595 112.186H628.191C631.018 98.0763 643.363 83.7099 664.232 83.7099L664.233 83.7109ZM820.645 198.495C776.598 198.495 746.585 164.946 746.585 125.391C746.585 84.5701 780.505 53.6641 820.505 53.6641C859.172 53.6641 878.964 80.962 878.964 80.962L855.179 104.638C855.179 104.638 841.401 86.8376 820.342 86.8376C797.002 86.8376 781.044 104.691 781.044 125.915C781.044 148.323 798.02 165.517 820.08 165.517C841.478 165.517 855.146 147.743 855.146 147.743L879.17 171.409C879.17 171.409 859.569 198.495 820.645 198.495ZM891.574 194.696V0H925.67V71.5325C925.67 71.5325 938.726 53.6641 967.125 53.6641C1002.83 53.6641 1023.51 80.2052 1023.51 114.149V194.696H989.416V119.302C989.416 96.498 975.218 87.0363 959.489 87.0363C941.569 87.0363 925.671 97.2354 925.671 121.067V194.696H891.574Z" fill="#DDE1E6"/>
<path fill-rule="evenodd" clip-rule="evenodd" d="M439.655 53.6899C395.939 53.6899 365.686 87.3023 365.686 125.775C365.686 168.713 398.597 198.291 439.994 198.291C479.283 198.291 513.376 169.256 513.376 125.682C513.376 89.0403 485.126 53.6899 439.655 53.6899ZM478.971 125.899C478.971 104.391 462.132 86.5825 439.253 86.5825C417.578 86.5825 400.339 103.876 400.339 125.96C400.339 146.108 415.608 165.338 439.871 165.338C460.405 165.338 478.971 148.703 478.971 125.899Z" fill="#DDE1E6"/>
</svg>
