<svg width="120" height="32" viewBox="0 0 120 32" fill="none" xmlns="http://www.w3.org/2000/svg">
<g clip-path="url(#clip0_131_4829)">
<path d="M80.0358 1.17073C80.0358 1.48123 79.9185 1.77901 79.7097 1.99856C79.501 2.21812 79.2179 2.34146 78.9227 2.34146C78.6275 2.34146 78.3443 2.21812 78.1356 1.99856C77.9268 1.77901 77.8096 1.48123 77.8096 1.17073C77.8096 0.860234 77.9268 0.562454 78.1356 0.342899C78.3443 0.123345 78.6275 0 78.9227 0C79.2179 0 79.501 0.123345 79.7097 0.342899C79.9185 0.562454 80.0358 0.860234 80.0358 1.17073Z" fill="#F2F2F2"/>
<path fill-rule="evenodd" clip-rule="evenodd" d="M50.1676 31.8392C44.5324 31.8392 39.9642 27.0346 39.9642 21.1075V0.780518H43.6746V21.1075C43.6746 22.9188 44.3586 24.6558 45.5763 25.9366C46.794 27.2173 48.4455 27.9368 50.1676 27.9368C53.7985 27.9368 56.6607 24.9936 56.6607 21.2683H60.371V27.122C60.371 27.3807 60.4687 27.6289 60.6427 27.8118C60.8166 27.9948 61.0525 28.0976 61.2986 28.0976C61.5446 28.0976 61.7805 27.9948 61.9545 27.8118C62.1284 27.6289 62.2261 27.3807 62.2261 27.122V20.1952C61.5522 20.3398 60.8561 20.3251 60.1883 20.1519C59.5205 19.9787 58.8977 19.6515 58.3649 19.1939C57.8322 18.7363 57.4029 18.1598 57.1081 17.5061C56.8134 16.8525 56.6605 16.1381 56.6607 15.4147V5.65857C56.6607 4.36483 57.1493 3.12408 58.0191 2.20926C58.8888 1.29445 60.0685 0.780518 61.2986 0.780518C62.5286 0.780518 63.7083 1.29445 64.578 2.20926C65.4478 3.12408 65.9365 4.36483 65.9365 5.65857V27.122C65.9365 27.3807 66.0342 27.6289 66.2081 27.8118C66.3821 27.9948 66.618 28.0976 66.864 28.0976C67.11 28.0976 67.346 27.9948 67.5199 27.8118C67.6939 27.6289 67.7916 27.3807 67.7916 27.122V5.65857C67.7916 4.36483 68.2802 3.12408 69.15 2.20926C70.0198 1.29445 71.1995 0.780518 72.4295 0.780518C73.6596 0.780518 74.8392 1.29445 75.709 2.20926C76.5788 3.12408 77.0674 4.36483 77.0674 5.65857V27.122C77.0674 28.0279 76.8276 28.9159 76.3747 29.6865C75.9219 30.4571 75.274 31.0799 74.5036 31.485C73.7333 31.8902 72.8708 32.0617 72.013 31.9803C71.1552 31.899 70.3358 31.568 69.6468 31.0244C68.8447 31.6591 67.8678 32.0016 66.864 32C65.8603 32.0016 64.8834 31.6591 64.0813 31.0244C63.5231 31.4647 62.8777 31.7669 62.193 31.9084C61.5084 32.05 60.8023 32.0272 60.1272 31.842C59.452 31.6567 58.8254 31.3136 58.2938 30.8383C57.7622 30.3629 57.3394 29.7676 57.0569 29.0966C55.2344 30.8113 52.8101 31.8392 50.1676 31.8392ZM72.4295 28.0976C71.9175 28.0976 71.5019 27.6605 71.5019 27.122V5.65857C71.5019 5.39982 71.5997 5.15167 71.7736 4.96871C71.9476 4.78574 72.1835 4.68296 72.4295 4.68296C72.6755 4.68296 72.9115 4.78574 73.0854 4.96871C73.2594 5.15167 73.3571 5.39982 73.3571 5.65857V27.122C73.3571 27.6605 72.9415 28.0976 72.4295 28.0976ZM62.2261 15.4147C62.2261 15.6734 62.1284 15.9216 61.9545 16.1045C61.7805 16.2875 61.5446 16.3903 61.2986 16.3903C61.0525 16.3903 60.8166 16.2875 60.6427 16.1045C60.4687 15.9216 60.371 15.6734 60.371 15.4147V5.65857C60.371 5.39982 60.4687 5.15167 60.6427 4.96871C60.8166 4.78574 61.0525 4.68296 61.2986 4.68296C61.5446 4.68296 61.7805 4.78574 61.9545 4.96871C62.1284 5.15167 62.2261 5.39982 62.2261 5.65857V15.4147Z" fill="#F2F2F2"/>
<path fill-rule="evenodd" clip-rule="evenodd" d="M45.5298 21.2683C45.5298 22.5621 46.0184 23.8028 46.8882 24.7176C47.758 25.6324 48.9376 26.1464 50.1677 26.1464C51.3977 26.1464 52.5774 25.6324 53.4472 24.7176C54.3169 23.8028 54.8056 22.5621 54.8056 21.2683V5.65857C54.8056 4.36483 54.3169 3.12408 53.4472 2.20927C52.5774 1.29445 51.3977 0.780518 50.1677 0.780518C48.9376 0.780518 47.758 1.29445 46.8882 2.20927C46.0184 3.12408 45.5298 4.36483 45.5298 5.65857V21.2683ZM50.1677 22.2439C49.6557 22.2439 49.2401 21.8069 49.2401 21.2683V5.65857C49.2401 5.39982 49.3378 5.15167 49.5118 4.96871C49.6857 4.78574 49.9217 4.68296 50.1677 4.68296C50.4137 4.68296 50.6496 4.78574 50.8236 4.96871C50.9975 5.15167 51.0953 5.39982 51.0953 5.65857V21.2683C51.0953 21.8069 50.6797 22.2439 50.1677 22.2439Z" fill="#F2F2F2"/>
</g>
<defs>
<clipPath id="clip0_131_4829">
<rect width="120" height="32" fill="white"/>
</clipPath>
</defs>
</svg>
