<svg width="48" height="48" viewBox="0 0 48 48" fill="none" xmlns="http://www.w3.org/2000/svg">
<g clip-path="url(#clip0_381_1731)">
<path d="M15.8375 41.7519C32.4411 41.7519 41.5227 27.9958 41.5227 16.0668C41.5227 15.6761 41.5227 15.2871 41.4963 14.8999C43.263 13.6221 44.788 12.0397 46 10.2271C44.3524 10.9571 42.6047 11.436 40.815 11.6474C42.6995 10.5192 44.1098 8.7447 44.7838 6.65435C43.0117 7.70594 41.0731 8.44697 39.0515 8.84553C35.6328 5.21024 29.9143 5.0348 26.279 8.45357C23.9346 10.6583 22.9398 13.9438 23.6674 17.0788C16.4091 16.7149 9.6464 13.2866 5.06256 7.64709C2.66659 11.7719 3.89033 17.0487 7.85745 19.6977C6.42086 19.6551 5.01562 19.2676 3.76017 18.5678V18.6822C3.76127 22.9793 6.79046 26.6806 11.0025 27.5314C9.67354 27.8939 8.27911 27.9469 6.92631 27.6864C8.10898 31.3636 11.4981 33.883 15.3601 33.9554C12.1635 36.4676 8.21476 37.8314 4.14901 37.8274C3.43072 37.8259 2.71316 37.7824 2 37.6972C6.12827 40.3465 10.9317 41.7518 15.837 41.7452" fill="#E2EBED"/>
</g>
<defs>
<clipPath id="clip0_381_1731">
<rect width="48" height="48" fill="white"/>
</clipPath>
</defs>
</svg>
