<svg width="48" height="48" viewBox="0 0 48 48" fill="none" xmlns="http://www.w3.org/2000/svg">
<g clip-path="url(#clip0_381_1734)">
<path d="M43.5617 2H4.43833C3.79313 2.0048 3.17571 2.26323 2.71947 2.71947C2.26323 3.17571 2.0048 3.79313 2 4.43833V43.5617C2.0048 44.2069 2.26323 44.8243 2.71947 45.2805C3.17571 45.7368 3.79313 45.9952 4.43833 46H25.5033V28.9867H19.7833V22.3317H25.5033V17.4367C25.5033 11.7533 28.9683 8.655 34.065 8.655C35.77 8.655 37.475 8.655 39.18 8.91167V14.8333H35.6783C32.91 14.8333 32.3783 16.1533 32.3783 18.0783V22.3133H38.9783L38.1167 28.9683H32.3783V46H43.5617C44.2069 45.9952 44.8243 45.7368 45.2805 45.2805C45.7368 44.8243 45.9952 44.2069 46 43.5617V4.43833C45.9952 3.79313 45.7368 3.17571 45.2805 2.71947C44.8243 2.26323 44.2069 2.0048 43.5617 2Z" fill="#E2EBED"/>
</g>
<defs>
<clipPath id="clip0_381_1734">
<rect width="48" height="48" fill="white"/>
</clipPath>
</defs>
</svg>
