<svg width="120" height="32" viewBox="0 0 120 32" fill="none" xmlns="http://www.w3.org/2000/svg">
<path fill-rule="evenodd" clip-rule="evenodd" d="M18.608 21.1C17.847 21.1 17.1171 20.7971 16.579 20.2579C16.0409 19.7188 15.7386 18.9875 15.7386 18.225V5H10V18.225C10 22.9883 13.8541 26.85 18.608 26.85H24.9205V21.1H18.608ZM35.8239 10.75C35.1456 10.75 34.474 10.8839 33.8474 11.1439C33.2208 11.404 32.6514 11.7852 32.1718 12.2657C31.6922 12.7463 31.3118 13.3168 31.0522 13.9446C30.7927 14.5725 30.6591 15.2454 30.6591 15.925C30.6591 16.6046 30.7927 17.2775 31.0522 17.9054C31.3118 18.5332 31.6922 19.1037 32.1718 19.5843C32.6514 20.0648 33.2208 20.446 33.8474 20.7061C34.474 20.9661 35.1456 21.1 35.8239 21.1C37.1936 21.1 38.5073 20.5548 39.4759 19.5843C40.4445 18.6138 40.9886 17.2975 40.9886 15.925C40.9886 14.5525 40.4445 13.2362 39.4759 12.2657C38.5073 11.2952 37.1936 10.75 35.8239 10.75ZM24.9205 15.925C24.9205 9.89152 29.8023 5 35.8239 5C41.8454 5 46.7273 9.89152 46.7273 15.925C46.7273 21.9585 41.8454 26.85 35.8239 26.85C29.8023 26.85 24.9205 21.9585 24.9205 15.925ZM97.8011 10.75C96.4313 10.75 95.1177 11.2952 94.1491 12.2657C93.1805 13.2362 92.6364 14.5525 92.6364 15.925C92.6364 17.2975 93.1805 18.6138 94.1491 19.5843C95.1177 20.5548 96.4313 21.1 97.8011 21.1C99.1709 21.1 100.485 20.5548 101.453 19.5843C102.422 18.6138 102.966 17.2975 102.966 15.925C102.966 14.5525 102.422 13.2362 101.453 12.2657C100.485 11.2952 99.1709 10.75 97.8011 10.75ZM86.8977 15.925C86.8977 9.89152 91.7796 5 97.8011 5C103.823 5 108.705 9.89152 108.705 15.925C108.705 21.9585 103.823 26.85 97.8011 26.85C91.7796 26.85 86.8977 21.9585 86.8977 15.925ZM58.7784 5C52.7569 5 47.875 9.89152 47.875 15.925C47.875 21.9585 52.7569 26.85 58.7784 26.85H74.8466C75.9765 26.85 77.0663 26.6775 78.0912 26.3578L81.1591 28L84.4691 21.7877C85.31 20.2063 85.7498 18.4419 85.75 16.6501V15.925C85.75 9.89152 80.8681 5 74.8466 5H58.7784ZM80.0114 15.925C80.0114 14.5525 79.4672 13.2362 78.4986 12.2657C77.53 11.2952 76.2164 10.75 74.8466 10.75H58.7784C58.1002 10.75 57.4285 10.8839 56.8019 11.1439C56.1753 11.404 55.606 11.7852 55.1264 12.2657C54.6468 12.7463 54.2663 13.3168 54.0068 13.9446C53.7472 14.5725 53.6136 15.2454 53.6136 15.925C53.6136 16.6046 53.7472 17.2775 54.0068 17.9054C54.2663 18.5332 54.6468 19.1037 55.1264 19.5843C55.606 20.0648 56.1753 20.446 56.8019 20.7061C57.4285 20.9661 58.1002 21.1 58.7784 21.1H74.8466C76.2094 21.1 77.5171 20.5603 78.4845 19.5985C79.4519 18.6367 80.0008 17.3308 80.0114 15.9653V15.925Z" fill="#F2F2F2"/>
<path d="M111 6.4375C111 6.81875 110.849 7.18438 110.58 7.45397C110.311 7.72355 109.946 7.875 109.565 7.875C109.185 7.875 108.82 7.72355 108.551 7.45397C108.282 7.18438 108.131 6.81875 108.131 6.4375C108.131 6.05625 108.282 5.69062 108.551 5.42103C108.82 5.15145 109.185 5 109.565 5C109.946 5 110.311 5.15145 110.58 5.42103C110.849 5.69062 111 6.05625 111 6.4375Z" fill="#F2F2F2"/>
</svg>
