<svg width="120" height="32" viewBox="0 0 120 32" fill="none" xmlns="http://www.w3.org/2000/svg">
<path d="M25.494 14.0996C25.2151 14.3876 25.0016 14.7352 24.8686 15.1176C24.7356 15.5 24.6864 15.9078 24.7244 16.312L24.7112 16.2984C24.7503 16.7742 24.6878 17.2529 24.528 17.7014C24.3683 18.1497 24.1152 18.5569 23.7864 18.8946C23.4576 19.2321 23.061 19.492 22.6242 19.6559C22.1874 19.8199 21.7211 19.8841 21.2577 19.8439L21.271 19.8575C20.7167 19.8046 20.16 19.9284 19.6767 20.2122C19.1935 20.4959 18.8072 20.9258 18.5707 21.4432C18.3341 21.9606 18.2587 22.5403 18.3548 23.1033C18.451 23.6662 18.7138 24.1851 19.1077 24.589C19.5015 24.993 20.0071 25.2624 20.5555 25.3605C21.104 25.4587 21.6685 25.3808 22.1722 25.1375C22.676 24.8941 23.0943 24.4972 23.3703 24.0008C23.6462 23.5044 23.7664 22.9328 23.7143 22.3637L23.7283 22.3773C23.6891 21.9016 23.7516 21.4228 23.9113 20.9744C24.071 20.526 24.3242 20.1188 24.653 19.7812C24.9818 19.4436 25.3785 19.1837 25.8152 19.0198C26.252 18.8558 26.7183 18.7916 27.1817 18.8318L27.1677 18.8182C27.6205 18.86 28.0763 18.7838 28.4927 18.5966C28.9092 18.4094 29.2729 18.1173 29.5501 17.7474C29.8273 17.3776 30.0092 16.9417 30.0786 16.4805C30.1482 16.0192 30.1031 15.5475 29.9478 15.1088C29.7924 14.6701 29.5316 14.2789 29.1898 13.9712C28.8479 13.6636 28.4359 13.4495 27.9919 13.3489C27.548 13.2483 27.0865 13.2643 26.6502 13.3955C26.2139 13.5268 25.817 13.7689 25.4962 14.0996H25.494Z" fill="#F2F2F2"/>
<path d="M20.0666 18.0763L20.0526 18.0627C20.4464 18.1034 20.8442 18.0538 21.2171 17.9174C21.59 17.781 21.9287 17.5613 22.2087 17.274C22.4886 16.9868 22.703 16.6392 22.8361 16.2564C22.9693 15.8737 23.0179 15.4654 22.9785 15.061L22.9925 15.0746C22.9534 14.5988 23.0159 14.1201 23.1756 13.6717C23.3353 13.2233 23.5884 12.8161 23.9172 12.4785C24.2461 12.1409 24.6427 11.881 25.0794 11.7171C25.5162 11.5531 25.9825 11.4889 26.446 11.5291L26.432 11.5155C26.9863 11.569 27.5432 11.4455 28.0267 11.1621C28.5103 10.8786 28.8969 10.4489 29.1337 9.93164C29.3706 9.41434 29.4464 8.8346 29.3506 8.27149C29.2548 7.70838 28.9921 7.18933 28.5984 6.78513C28.2047 6.38092 27.6991 6.11124 27.1506 6.01288C26.6022 5.91451 26.0375 5.99224 25.5336 6.23548C25.0297 6.4787 24.6112 6.87559 24.3351 7.372C24.059 7.86841 23.9388 8.44017 23.9909 9.0093L23.9776 8.99495C24.0169 9.47073 23.9545 9.94956 23.7948 10.398C23.6352 10.8465 23.382 11.2537 23.0532 11.5914C22.7244 11.929 22.3277 12.1889 21.8909 12.3528C21.454 12.5167 20.9876 12.5807 20.5242 12.5405L20.5374 12.5548C20.1436 12.5141 19.7458 12.5638 19.373 12.7002C19.0001 12.8365 18.6614 13.0563 18.3814 13.3436C18.1013 13.6308 17.887 13.9784 17.7539 14.3611C17.6208 14.7439 17.5721 15.1521 17.6115 15.5565L17.5983 15.5429C17.6373 16.0186 17.5746 16.4974 17.4149 16.9457C17.2551 17.394 17.002 17.8012 16.6733 18.1388C16.3444 18.4763 15.9479 18.7362 15.5112 18.9002C15.0745 19.0642 14.6082 19.1285 14.1448 19.0885L14.1581 19.1021C13.6037 19.0486 13.0468 19.172 12.5633 19.4555C12.0798 19.739 11.6932 20.1686 11.4563 20.6859C11.2194 21.2033 11.1437 21.783 11.2395 22.3461C11.3353 22.9092 11.598 23.4282 11.9917 23.8324C12.3854 24.2367 12.8909 24.5063 13.4394 24.6047C13.9879 24.703 14.5526 24.6253 15.0565 24.3821C15.5603 24.1389 15.9788 23.742 16.2549 23.2456C16.531 22.7491 16.6513 22.1774 16.5992 21.6083L16.6131 21.6219C16.574 21.1461 16.6365 20.6673 16.7963 20.2189C16.9559 19.7705 17.2091 19.3633 17.5379 19.0257C17.8667 18.6881 18.2633 18.4282 18.7001 18.2643C19.1369 18.1003 19.6032 18.0361 20.0666 18.0763Z" fill="#F2F2F2"/>
<path d="M15.1358 16.5605C15.4147 16.2726 15.6281 15.925 15.761 15.5426C15.8939 15.1601 15.943 14.7523 15.9046 14.3482L15.9186 14.3618C15.8795 13.8859 15.942 13.4069 16.1018 12.9584C16.2616 12.5099 16.5148 12.1026 16.8438 11.765C17.1728 11.4274 17.5696 11.1675 18.0066 11.0037C18.4435 10.8398 18.91 10.7758 19.3735 10.8162L19.3595 10.8026C19.9137 10.8559 20.4704 10.7324 20.9537 10.449C21.437 10.1656 21.8233 9.736 22.0601 9.21886C22.2969 8.70172 22.3725 8.12219 22.2767 7.55929C22.1809 6.99639 21.9183 6.47754 21.5247 6.07348C21.1312 5.66942 20.6258 5.39983 20.0775 5.30147C19.5293 5.2031 18.9648 5.28077 18.4611 5.52385C17.9573 5.76693 17.5389 6.16361 17.2629 6.65979C16.9868 7.15596 16.8665 7.7275 16.9184 8.29643L16.9052 8.28283C16.9443 8.75858 16.8818 9.23736 16.7221 9.68576C16.5624 10.1342 16.3093 10.5414 15.9804 10.879C15.6516 11.2166 15.255 11.4764 14.8182 11.6404C14.3815 11.8043 13.9151 11.8686 13.4518 11.8284L13.465 11.842C13.0122 11.8003 12.5565 11.8766 12.1401 12.0639C11.7237 12.2511 11.3601 12.5433 11.0829 12.9133C10.8058 13.2831 10.6241 13.719 10.5546 14.1802C10.4852 14.6415 10.5303 15.1132 10.6857 15.5518C10.8412 15.9904 11.1019 16.3816 11.4438 16.6892C11.7857 16.9968 12.1977 17.2108 12.6417 17.3114C13.0856 17.4119 13.547 17.3959 13.9833 17.2647C14.4195 17.1334 14.8165 16.8912 15.1373 16.5605H15.1358Z" fill="#F2F2F2"/>
<path d="M37.926 9.02686H40.1111V19.9437H37.926V9.02686Z" fill="#F2F2F2"/>
<path d="M41.3486 16.2054C41.3456 15.4209 41.5694 14.653 41.9917 13.9992C42.414 13.3454 43.0158 12.835 43.7209 12.5326C44.426 12.2302 45.2027 12.1494 45.9525 12.3006C46.7023 12.4517 47.3916 12.8279 47.933 13.3815C48.4744 13.9351 48.8436 14.6413 48.9939 15.4105C49.1441 16.1797 49.0685 16.9774 48.7768 17.7026C48.4851 18.4276 47.9903 19.0476 47.3552 19.4837C46.72 19.9199 45.9731 20.1528 45.2089 20.1528C44.7017 20.1587 44.1984 20.0608 43.7284 19.8647C43.2585 19.6686 42.8313 19.3783 42.4719 19.0109C42.1124 18.6433 41.828 18.2059 41.6352 17.7242C41.4423 17.2426 41.3449 16.7262 41.3486 16.2054ZM46.8841 16.2054C46.875 15.8672 46.769 15.5394 46.5794 15.2627C46.3897 14.9861 46.1249 14.7729 45.8179 14.65C45.5109 14.5271 45.1755 14.4997 44.8535 14.5715C44.5315 14.6432 44.2372 14.8108 44.0074 15.0533C43.7777 15.2958 43.6226 15.6024 43.5618 15.9349C43.5009 16.2673 43.5367 16.6109 43.6649 16.9225C43.7932 17.2342 44.008 17.5 44.2826 17.687C44.5572 17.8739 44.8795 17.9736 45.2089 17.9736C45.4346 17.9798 45.659 17.9379 45.8682 17.8506C46.0773 17.7633 46.2665 17.6325 46.4239 17.4664C46.5812 17.3002 46.7034 17.1024 46.7826 16.8854C46.8618 16.6684 46.8964 16.4368 46.8841 16.2054Z" fill="#F2F2F2"/>
<path d="M57.7779 12.4665V19.5666C57.7779 22.0788 55.8694 23.1408 53.9323 23.1408C53.2503 23.1933 52.5673 23.0518 51.9584 22.7321C51.3495 22.4122 50.8381 21.9265 50.4803 21.328L52.3446 20.2215C52.495 20.5334 52.7346 20.7908 53.0313 20.9591C53.3281 21.1274 53.6679 21.1987 54.0051 21.1634C54.2207 21.194 54.4402 21.1746 54.6475 21.1063C54.8547 21.0381 55.0443 20.923 55.2024 20.7694C55.3604 20.6158 55.4827 20.4277 55.5604 20.2189C55.638 20.0102 55.6689 19.7863 55.6509 19.5636V18.88C55.395 19.2014 55.0694 19.4568 54.7 19.6256C54.3306 19.7944 53.9279 19.872 53.524 19.8521C52.563 19.821 51.6515 19.4072 50.9824 18.6983C50.3134 17.9894 49.9393 17.041 49.9393 16.0539C49.9393 15.0669 50.3134 14.1185 50.9824 13.4096C51.6515 12.7006 52.563 12.2868 53.524 12.2557C53.9279 12.2359 54.3306 12.3134 54.7 12.4823C55.0694 12.6511 55.395 12.9064 55.6509 13.2278V12.465L57.7779 12.4665ZM55.6517 16.0551C55.6664 15.6936 55.5753 15.3358 55.3903 15.0278C55.2052 14.7198 54.9346 14.4757 54.6133 14.327C54.2921 14.1782 53.9348 14.1316 53.5875 14.1931C53.2401 14.2546 52.9187 14.4213 52.6644 14.672C52.4102 14.9227 52.2349 15.2456 52.161 15.5994C52.0871 15.9532 52.118 16.3217 52.2499 16.6573C52.3816 16.9929 52.6082 17.2804 52.9004 17.4826C53.1927 17.6849 53.5372 17.7928 53.8896 17.7923C54.1192 17.8088 54.3496 17.7757 54.566 17.6952C54.7823 17.6147 54.9799 17.4885 55.1458 17.3248C55.3118 17.1612 55.4426 16.9636 55.5297 16.7449C55.6169 16.5262 55.6584 16.2912 55.6517 16.0551Z" fill="#F2F2F2"/>
<path d="M59.0154 16.2054C59.0123 15.4209 59.2361 14.653 59.6585 13.9992C60.0808 13.3454 60.6826 12.835 61.3877 12.5326C62.0928 12.2302 62.8694 12.1494 63.6192 12.3006C64.3691 12.4517 65.0584 12.8279 65.5998 13.3815C66.1412 13.9351 66.5104 14.6413 66.6606 15.4105C66.8108 16.1797 66.7353 16.9774 66.4436 17.7026C66.1519 18.4276 65.6571 19.0476 65.022 19.4837C64.3867 19.9199 63.6398 20.1528 62.8757 20.1528C62.3685 20.1587 61.8651 20.0608 61.3952 19.8647C60.9252 19.6686 60.498 19.3783 60.1386 19.0109C59.7792 18.6433 59.4948 18.2059 59.3019 17.7242C59.109 17.2426 59.0116 16.7262 59.0154 16.2054ZM64.5509 16.2054C64.5418 15.8672 64.4357 15.5394 64.2461 15.2627C64.0565 14.9861 63.7916 14.7729 63.4847 14.65C63.1777 14.5271 62.8422 14.4997 62.5202 14.5715C62.1982 14.6432 61.9039 14.8108 61.6742 15.0533C61.4445 15.2958 61.2894 15.6024 61.2285 15.9349C61.1675 16.2673 61.2035 16.6109 61.3317 16.9225C61.4599 17.2342 61.6747 17.5 61.9493 17.687C62.224 17.8739 62.5461 17.9736 62.8757 17.9736C63.1013 17.9798 63.3258 17.9379 63.5349 17.8506C63.744 17.7633 63.9332 17.6325 64.0906 17.4664C64.248 17.3002 64.3702 17.1024 64.4493 16.8854C64.5286 16.6684 64.5632 16.4368 64.5509 16.2054Z" fill="#F2F2F2"/>
<path d="M67.7549 10.4627C67.7549 10.1965 67.8318 9.93625 67.9758 9.71491C68.1199 9.49356 68.3247 9.32103 68.5642 9.21916C68.8038 9.11728 69.0674 9.09063 69.3217 9.14256C69.576 9.1945 69.8097 9.3227 69.993 9.51094C70.1763 9.69918 70.3012 9.93901 70.3518 10.2001C70.4024 10.4612 70.3764 10.7318 70.2772 10.9778C70.178 11.2237 70.0099 11.434 69.7943 11.5819C69.5787 11.7298 69.3253 11.8087 69.0659 11.8087C68.7193 11.8052 68.3878 11.6622 68.1427 11.4106C67.8976 11.1589 67.7583 10.8186 67.7549 10.4627ZM67.9756 12.4666H70.1614V19.9444H67.9727L67.9756 12.4666Z" fill="#F2F2F2"/>
<path d="M79.5962 16.2055C79.6215 16.6997 79.5513 17.1941 79.3898 17.6604C79.2283 18.1267 78.9786 18.5555 78.655 18.9224C78.3315 19.2892 77.9405 19.5868 77.5046 19.798C77.0686 20.0091 76.5963 20.1297 76.1148 20.1528C75.7099 20.1755 75.3052 20.1054 74.9299 19.9476C74.5546 19.7897 74.2183 19.5482 73.9452 19.2404V22.9347H71.7601V12.4666H73.9452V13.169C74.2184 12.8615 74.5548 12.62 74.93 12.4624C75.3053 12.3047 75.71 12.2347 76.1148 12.2573C76.5964 12.2804 77.0688 12.4009 77.5049 12.6121C77.9409 12.8233 78.332 13.1209 78.6555 13.4879C78.9791 13.8548 79.2288 14.2838 79.3902 14.7502C79.5516 15.2166 79.6217 15.7112 79.5962 16.2055ZM77.4112 16.2055C77.4026 15.8555 77.2937 15.5159 77.0981 15.2291C76.9025 14.9424 76.6289 14.7212 76.3115 14.5934C75.994 14.4656 75.6469 14.4366 75.3136 14.5103C74.9802 14.584 74.6755 14.757 74.4374 15.0076C74.1993 15.2583 74.0386 15.5754 73.9752 15.9194C73.9119 16.2634 73.9487 16.6189 74.0812 16.9415C74.2137 17.2641 74.4359 17.5393 74.7201 17.7329C75.0042 17.9264 75.3375 18.0297 75.6785 18.0296C75.9126 18.0403 76.1463 18.0001 76.3642 17.9115C76.5821 17.8231 76.7793 17.6883 76.9429 17.516C77.1065 17.3438 77.2327 17.138 77.3135 16.9122C77.3942 16.6863 77.4275 16.4454 77.4112 16.2055Z" fill="#F2F2F2"/>
<path d="M86.339 17.7002C86.339 19.4201 84.8831 20.1528 83.3101 20.1528C82.6744 20.2118 82.0364 20.0739 81.478 19.7566C80.9197 19.4393 80.4669 18.9574 80.1782 18.3732L82.0712 17.2666C82.1477 17.5367 82.3122 17.7716 82.5372 17.9321C82.762 18.0927 83.0342 18.1692 83.3072 18.1489C83.831 18.1489 84.0936 17.9842 84.0936 17.6858C84.0936 16.8625 80.51 17.2968 80.51 14.7098C80.51 13.0791 81.8504 12.2573 83.3653 12.2573C83.9347 12.2387 84.4983 12.3774 84.9978 12.6588C85.4974 12.9402 85.9145 13.354 86.2051 13.857L84.3408 14.8888C84.2592 14.693 84.1231 14.5261 83.9494 14.4091C83.7758 14.2921 83.5727 14.2302 83.3653 14.2309C82.9864 14.2309 82.7532 14.382 82.7532 14.6494C82.7561 15.5022 86.339 14.9334 86.339 17.7002Z" fill="#F2F2F2"/>
<path d="M94.3208 12.4666V19.9444H92.1357V19.2411C91.8833 19.5514 91.5633 19.7959 91.2013 19.9546C90.8394 20.1132 90.4465 20.1814 90.0536 20.1536C88.5822 20.1536 87.3315 19.0772 87.3315 17.0567V12.4666H89.5166V16.7281C89.4982 16.9063 89.518 17.0863 89.5747 17.2557C89.6306 17.4252 89.7226 17.5801 89.8432 17.7095C89.9639 17.8389 90.1103 17.9397 90.2729 18.005C90.4347 18.0704 90.6091 18.0986 90.7835 18.0877C91.5846 18.0877 92.1379 17.6096 92.1379 16.5476V12.4688L94.3208 12.4666Z" fill="#F2F2F2"/>
<path d="M106.85 15.3526V19.9435H104.665V15.5467C104.665 14.7989 104.315 14.3208 103.617 14.3208C102.888 14.3208 102.48 14.8442 102.48 15.7265V19.9435H100.296V15.5467C100.296 14.7989 99.9461 14.3208 99.2464 14.3208C98.5181 14.3208 98.1105 14.8442 98.1105 15.7265V19.9435H95.9254V12.4657H98.1105V13.153C98.3371 12.8481 98.6343 12.6063 98.9749 12.4497C99.3163 12.293 99.6901 12.2266 100.062 12.2565C100.436 12.2376 100.808 12.3187 101.143 12.4916C101.477 12.6644 101.762 12.9233 101.97 13.2429C102.212 12.9085 102.533 12.6427 102.902 12.4701C103.272 12.2976 103.678 12.2241 104.082 12.2565C105.755 12.2572 106.85 13.4831 106.85 15.3526Z" fill="#F2F2F2"/>
<path d="M108.698 12.4206C109.593 12.4206 110.32 11.6752 110.32 10.7558C110.32 9.8364 109.593 9.09106 108.698 9.09106C107.803 9.09106 107.077 9.8364 107.077 10.7558C107.077 11.6752 107.803 12.4206 108.698 12.4206Z" fill="#F2F2F2"/>
</svg>
