<svg width="48" height="48" viewBox="0 0 48 48" fill="none" xmlns="http://www.w3.org/2000/svg">
<g clip-path="url(#clip0_381_1728)">
<path d="M42.7 2H5.3C3.46667 2 2 3.46667 2 5.11667V42.7C2 44.35 3.46667 45.8167 5.3 45.8167H42.7C44.5333 45.8167 46 44.35 46 42.7V5.11667C46 3.46667 44.5333 2 42.7 2ZM15.0167 39.4H8.6V18.5H15.0167V39.4ZM11.9 15.5667C9.88333 15.5667 8.05 13.9167 8.05 11.7167C8.05 9.51667 9.7 7.86667 11.9 7.86667C13.9167 7.86667 15.75 9.51667 15.75 11.7167C15.75 13.9167 13.9167 15.5667 11.9 15.5667ZM39.5833 39.2167H33.1667V28.95C33.1667 26.5667 33.1667 23.2667 29.6833 23.2667C26.2 23.2667 25.8333 26.0167 25.8333 28.5833V39.0333H19.4167V18.5H25.4667V21.25H25.65C26.5667 19.6 28.7667 17.7667 31.8833 17.7667C38.4833 17.7667 39.7667 22.1667 39.7667 27.85V39.2167H39.5833Z" fill="#E2EBED"/>
</g>
<defs>
<clipPath id="clip0_381_1728">
<rect width="48" height="48" fill="white"/>
</clipPath>
</defs>
</svg>
