<?xml version="1.0" encoding="UTF-8"?>
<svg width="813px" height="658px" viewBox="0 0 813 658" version="1.1" xmlns="http://www.w3.org/2000/svg" xmlns:xlink="http://www.w3.org/1999/xlink">
    <title>stars-bg</title>
    <g id="Page-1" stroke="none" stroke-width="1" fill="none" fill-rule="evenodd" opacity="0.7">
        <g id="stars-bg" fill="#FFFFFF" fill-rule="nonzero">
            <g id="Group">
                <circle id="Oval" opacity="0.11" transform="translate(200.021948, 505.871614) rotate(-32.982000) translate(-200.021948, -505.871614) " cx="200.021948" cy="505.871614" r="1.175"></circle>
                <circle id="Oval" transform="translate(206.896948, 509.459614) rotate(-32.982000) translate(-206.896948, -509.459614) " cx="206.896948" cy="509.459614" r="1"></circle>
                <circle id="Oval" transform="translate(216.443948, 488.565614) rotate(-32.982000) translate(-216.443948, -488.565614) " cx="216.443948" cy="488.565614" r="1"></circle>
                <circle id="Oval" transform="translate(173.928948, 514.752614) rotate(-32.982000) translate(-173.928948, -514.752614) " cx="173.928948" cy="514.752614" r="1"></circle>
                <circle id="Oval" opacity="0.11" transform="translate(157.053948, 542.155614) rotate(-32.982000) translate(-157.053948, -542.155614) " cx="157.053948" cy="542.155614" r="1.175"></circle>
                <circle id="Oval" transform="translate(140.983948, 537.883614) rotate(-32.982000) translate(-140.983948, -537.883614) " cx="140.983948" cy="537.883614" r="1"></circle>
                <circle id="Oval" transform="translate(211.326948, 526.537614) rotate(-32.982000) translate(-211.326948, -526.537614) " cx="211.326948" cy="526.537614" r="1"></circle>
                <circle id="Oval" transform="translate(318.725948, 456.844614) rotate(-32.982000) translate(-318.725948, -456.844614) " cx="318.725948" cy="456.844614" r="1"></circle>
                <circle id="Oval" transform="translate(355.154948, 395.394614) rotate(-32.982000) translate(-355.154948, -395.394614) " cx="355.154948" cy="395.394614" r="1"></circle>
                <circle id="Oval" transform="translate(397.709948, 418.887614) rotate(-32.982000) translate(-397.709948, -418.887614) " cx="397.709948" cy="418.887614" r="1"></circle>
                <circle id="Oval" transform="translate(39.287948, 620.680614) rotate(-32.982000) translate(-39.287948, -620.680614) " cx="39.2879485" cy="620.680614" r="1"></circle>
                <circle id="Oval" opacity="0.11" transform="translate(14.639948, 598.872614) rotate(-32.982000) translate(-14.639948, -598.872614) " cx="14.6399485" cy="598.872614" r="1"></circle>
                <circle id="Oval" opacity="0.11" transform="translate(0.811948, 623.949614) rotate(-32.982000) translate(-0.811948, -623.949614) " cx="0.811948474" cy="623.949614" r="1"></circle>
                <circle id="Oval" opacity="0.11" transform="translate(36.248948, 642.958614) rotate(-32.982000) translate(-36.248948, -642.958614) " cx="36.2489485" cy="642.958614" r="1"></circle>
                <circle id="Oval" opacity="0.11" transform="translate(140.701948, 547.165614) rotate(-32.982000) translate(-140.701948, -547.165614) " cx="140.701948" cy="547.165614" r="1"></circle>
                <circle id="Oval" opacity="0.11" transform="translate(221.858948, 544.911614) rotate(-32.982000) translate(-221.858948, -544.911614) " cx="221.858948" cy="544.911614" r="1"></circle>
                <circle id="Oval" opacity="0.11" transform="translate(313.240948, 478.603614) rotate(-32.982000) translate(-313.240948, -478.603614) " cx="313.240948" cy="478.603614" r="1"></circle>
                <circle id="Oval" opacity="0.3" transform="translate(53.959948, 593.657614) rotate(-32.982000) translate(-53.959948, -593.657614) " cx="53.9599485" cy="593.657614" r="1"></circle>
                <circle id="Oval" transform="translate(149.998948, 493.525614) rotate(-32.982000) translate(-149.998948, -493.525614) " cx="149.998948" cy="493.525614" r="1"></circle>
                <circle id="Oval" transform="translate(225.225948, 443.308614) rotate(-32.982000) translate(-225.225948, -443.308614) " cx="225.225948" cy="443.308614" r="1"></circle>
                <circle id="Oval" transform="translate(145.912948, 560.587614) rotate(-32.982000) translate(-145.912948, -560.587614) " cx="145.912948" cy="560.587614" r="1"></circle>
                <circle id="Oval" opacity="0.3" transform="translate(111.428948, 582.967614) rotate(-32.982000) translate(-111.428948, -582.967614) " cx="111.428948" cy="582.967614" r="1"></circle>
                <circle id="Oval" opacity="0.11" transform="translate(51.217948, 578.636614) rotate(-32.982000) translate(-51.217948, -578.636614) " cx="51.2179485" cy="578.636614" r="1"></circle>
                <circle id="Oval" opacity="0.3" transform="translate(166.545948, 499.593614) rotate(-32.982000) translate(-166.545948, -499.593614) " cx="166.545948" cy="499.593614" r="1"></circle>
                <circle id="Oval" opacity="0.3" transform="translate(160.365948, 564.512614) rotate(-32.982000) translate(-160.365948, -564.512614) " cx="160.365948" cy="564.512614" r="1"></circle>
                <circle id="Oval" opacity="0.3" transform="translate(103.951948, 608.121614) rotate(-32.982000) translate(-103.951948, -608.121614) " cx="103.951948" cy="608.121614" r="1"></circle>
                <circle id="Oval" opacity="0.3" transform="translate(68.248948, 584.388614) rotate(-32.982000) translate(-68.248948, -584.388614) " cx="68.2489485" cy="584.388614" r="1"></circle>
                <circle id="Oval" opacity="0.3" transform="translate(373.701948, 384.060614) rotate(-32.982000) translate(-373.701948, -384.060614) " cx="373.701948" cy="384.060614" r="1"></circle>
                <circle id="Oval" opacity="0.11" transform="translate(281.279948, 415.331614) rotate(-32.982000) translate(-281.279948, -415.331614) " cx="281.279948" cy="415.331614" r="1"></circle>
                <circle id="Oval" opacity="0.11" transform="translate(374.147948, 413.872614) rotate(-32.982000) translate(-374.147948, -413.872614) " cx="374.147948" cy="413.872614" r="1"></circle>
                <circle id="Oval" opacity="0.3" transform="translate(252.068948, 498.698614) rotate(-32.982000) translate(-252.068948, -498.698614) " cx="252.068948" cy="498.698614" r="1.175"></circle>
                <circle id="Oval" opacity="0.11" transform="translate(271.545948, 465.057614) rotate(-32.982000) translate(-271.545948, -465.057614) " cx="271.545948" cy="465.057614" r="1.175"></circle>
                <circle id="Oval" transform="translate(260.271948, 448.221614) rotate(-32.982000) translate(-260.271948, -448.221614) " cx="260.271948" cy="448.221614" r="1"></circle>
                <circle id="Oval" transform="translate(259.850948, 522.006614) rotate(-32.982000) translate(-259.850948, -522.006614) " cx="259.850948" cy="522.006614" r="1"></circle>
                <circle id="Oval" transform="translate(429.795948, 425.720614) rotate(-32.982000) translate(-429.795948, -425.720614) " cx="429.795948" cy="425.720614" r="1"></circle>
                <circle id="Oval" transform="translate(104.639948, 624.827614) rotate(-32.982000) translate(-104.639948, -624.827614) " cx="104.639948" cy="624.827614" r="1"></circle>
                <circle id="Oval" transform="translate(31.771948, 656.015614) rotate(-32.982000) translate(-31.771948, -656.015614) " cx="31.7719485" cy="656.015614" r="1"></circle>
                <circle id="Oval" transform="translate(10.607948, 641.745614) rotate(-32.982000) translate(-10.607948, -641.745614) " cx="10.6079485" cy="641.745614" r="1"></circle>
                <circle id="Oval" transform="translate(243.021948, 473.419614) rotate(-32.982000) translate(-243.021948, -473.419614) " cx="243.021948" cy="473.419614" r="1"></circle>
                <circle id="Oval" transform="translate(180.959948, 565.500614) rotate(-32.982000) translate(-180.959948, -565.500614) " cx="180.959948" cy="565.500614" r="1"></circle>
                <circle id="Oval" transform="translate(318.850948, 506.121614) rotate(-32.982000) translate(-318.850948, -506.121614) " cx="318.850948" cy="506.121614" r="1"></circle>
                <circle id="Oval" transform="translate(427.654948, 387.902614) rotate(-32.982000) translate(-427.654948, -387.902614) " cx="427.654948" cy="387.902614" r="1"></circle>
                <circle id="Oval" transform="translate(421.896948, 353.135614) rotate(-32.982000) translate(-421.896948, -353.135614) " cx="421.896948" cy="353.135614" r="1"></circle>
                <circle id="Oval" opacity="0.3" transform="translate(301.076948, 422.091614) rotate(-32.982000) translate(-301.076948, -422.091614) " cx="301.076948" cy="422.091614" r="1.175"></circle>
                <circle id="Oval" transform="translate(278.373948, 387.116614) rotate(-32.982000) translate(-278.373948, -387.116614) " cx="278.373948" cy="387.116614" r="1.175"></circle>
                <circle id="Oval" transform="translate(333.639948, 416.712614) rotate(-32.982000) translate(-333.639948, -416.712614) " cx="333.639948" cy="416.712614" r="1"></circle>
                <circle id="Oval" opacity="0.3" transform="translate(344.904948, 381.747614) rotate(-32.982000) translate(-344.904948, -381.747614) " cx="344.904948" cy="381.747614" r="1.175"></circle>
                <circle id="Oval" opacity="0.3" transform="translate(416.373948, 385.074614) rotate(-32.982000) translate(-416.373948, -385.074614) " cx="416.373948" cy="385.074614" r="1.175"></circle>
                <circle id="Oval" opacity="0.3" transform="translate(359.373948, 423.463614) rotate(-32.982000) translate(-359.373948, -423.463614) " cx="359.373948" cy="423.463614" r="1.175"></circle>
                <circle id="Oval" opacity="0.3" transform="translate(82.037948, 615.342614) rotate(-32.982000) translate(-82.037948, -615.342614) " cx="82.0379485" cy="615.342614" r="1.175"></circle>
                <circle id="Oval" opacity="0.3" transform="translate(24.545948, 614.144614) rotate(-32.982000) translate(-24.545948, -614.144614) " cx="24.5459485" cy="614.144614" r="1.175"></circle>
                <circle id="Oval" opacity="0.11" transform="translate(386.584948, 383.403614) rotate(-32.982000) translate(-386.584948, -383.403614) " cx="386.584948" cy="383.403614" r="1.175"></circle>
                <circle id="Oval" opacity="0.3" transform="translate(84.123948, 551.679614) rotate(-32.982000) translate(-84.123948, -551.679614) " cx="84.1239485" cy="551.679614" r="1.175"></circle>
                <circle id="Oval" opacity="0.11" transform="translate(64.428948, 550.458614) rotate(-32.982000) translate(-64.428948, -550.458614) " cx="64.4289485" cy="550.458614" r="1.175"></circle>
                <circle id="Oval" opacity="0.3" transform="translate(80.951948, 584.543614) rotate(-32.982000) translate(-80.951948, -584.543614) " cx="80.9519485" cy="584.543614" r="1.175"></circle>
                <circle id="Oval" transform="translate(111.576948, 564.317614) rotate(-32.982000) translate(-111.576948, -564.317614) " cx="111.576948" cy="564.317614" r="1"></circle>
                <circle id="Oval" opacity="0.11" transform="translate(272.756948, 244.873614) rotate(-32.982000) translate(-272.756948, -244.873614) " cx="272.756948" cy="244.873614" r="1.175"></circle>
                <circle id="Oval" transform="translate(279.631948, 248.462614) rotate(-32.982000) translate(-279.631948, -248.462614) " cx="279.631948" cy="248.462614" r="1"></circle>
                <circle id="Oval" transform="translate(289.178948, 227.567614) rotate(-32.982000) translate(-289.178948, -227.567614) " cx="289.178948" cy="227.567614" r="1"></circle>
                <circle id="Oval" transform="translate(246.662948, 253.755614) rotate(-32.982000) translate(-246.662948, -253.755614) " cx="246.662948" cy="253.755614" r="1"></circle>
                <circle id="Oval" opacity="0.11" transform="translate(229.787948, 281.157614) rotate(-32.982000) translate(-229.787948, -281.157614) " cx="229.787948" cy="281.157614" r="1.175"></circle>
                <circle id="Oval" transform="translate(213.717948, 276.886614) rotate(-32.982000) translate(-213.717948, -276.886614) " cx="213.717948" cy="276.886614" r="1"></circle>
                <circle id="Oval" transform="translate(284.061948, 265.539614) rotate(-32.982000) translate(-284.061948, -265.539614) " cx="284.061948" cy="265.539614" r="1"></circle>
                <circle id="Oval" transform="translate(391.459948, 195.847614) rotate(-32.982000) translate(-391.459948, -195.847614) " cx="391.459948" cy="195.847614" r="1"></circle>
                <circle id="Oval" transform="translate(427.889948, 134.397614) rotate(-32.982000) translate(-427.889948, -134.397614) " cx="427.889948" cy="134.397614" r="1"></circle>
                <circle id="Oval" transform="translate(470.443948, 157.892614) rotate(-32.982000) translate(-470.443948, -157.892614) " cx="470.443948" cy="157.892614" r="1"></circle>
                <circle id="Oval" transform="translate(112.022948, 359.682614) rotate(-32.982000) translate(-112.022948, -359.682614) " cx="112.022948" cy="359.682614" r="1"></circle>
                <circle id="Oval" opacity="0.11" transform="translate(87.373948, 337.874614) rotate(-32.982000) translate(-87.373948, -337.874614) " cx="87.3739485" cy="337.874614" r="1"></circle>
                <circle id="Oval" opacity="0.11" transform="translate(73.545948, 362.951614) rotate(-32.982000) translate(-73.545948, -362.951614) " cx="73.5459485" cy="362.951614" r="1"></circle>
                <circle id="Oval" opacity="0.11" transform="translate(108.983948, 381.960614) rotate(-32.982000) translate(-108.983948, -381.960614) " cx="108.983948" cy="381.960614" r="1"></circle>
                <circle id="Oval" opacity="0.11" transform="translate(213.436948, 286.167614) rotate(-32.982000) translate(-213.436948, -286.167614) " cx="213.436948" cy="286.167614" r="1"></circle>
                <circle id="Oval" opacity="0.11" transform="translate(294.592948, 283.913614) rotate(-32.982000) translate(-294.592948, -283.913614) " cx="294.592948" cy="283.913614" r="1"></circle>
                <circle id="Oval" opacity="0.11" transform="translate(385.975948, 217.605614) rotate(-32.982000) translate(-385.975948, -217.605614) " cx="385.975948" cy="217.605614" r="1"></circle>
                <circle id="Oval" opacity="0.3" transform="translate(126.693948, 332.660614) rotate(-32.982000) translate(-126.693948, -332.660614) " cx="126.693948" cy="332.660614" r="1"></circle>
                <circle id="Oval" transform="translate(222.733948, 232.527614) rotate(-32.982000) translate(-222.733948, -232.527614) " cx="222.733948" cy="232.527614" r="1"></circle>
                <circle id="Oval" transform="translate(297.959948, 182.310614) rotate(-32.982000) translate(-297.959948, -182.310614) " cx="297.959948" cy="182.310614" r="1"></circle>
                <circle id="Oval" transform="translate(218.647948, 299.590614) rotate(-32.982000) translate(-218.647948, -299.590614) " cx="218.647948" cy="299.590614" r="1"></circle>
                <circle id="Oval" opacity="0.3" transform="translate(184.162948, 321.969614) rotate(-32.982000) translate(-184.162948, -321.969614) " cx="184.162948" cy="321.969614" r="1"></circle>
                <circle id="Oval" opacity="0.11" transform="translate(123.951948, 317.639614) rotate(-32.982000) translate(-123.951948, -317.639614) " cx="123.951948" cy="317.639614" r="1"></circle>
                <circle id="Oval" opacity="0.3" transform="translate(239.279948, 238.595614) rotate(-32.982000) translate(-239.279948, -238.595614) " cx="239.279948" cy="238.595614" r="1"></circle>
                <circle id="Oval" opacity="0.3" transform="translate(233.100948, 303.514614) rotate(-32.982000) translate(-233.100948, -303.514614) " cx="233.100948" cy="303.514614" r="1"></circle>
                <circle id="Oval" opacity="0.3" transform="translate(176.686948, 347.124614) rotate(-32.982000) translate(-176.686948, -347.124614) " cx="176.686948" cy="347.124614" r="1"></circle>
                <circle id="Oval" opacity="0.3" transform="translate(140.983948, 323.390614) rotate(-32.982000) translate(-140.983948, -323.390614) " cx="140.983948" cy="323.390614" r="1"></circle>
                <circle id="Oval" opacity="0.3" transform="translate(446.436948, 123.062614) rotate(-32.982000) translate(-446.436948, -123.062614) " cx="446.436948" cy="123.062614" r="1"></circle>
                <circle id="Oval" opacity="0.11" transform="translate(354.014948, 154.334614) rotate(-32.982000) translate(-354.014948, -154.334614) " cx="354.014948" cy="154.334614" r="1"></circle>
                <circle id="Oval" opacity="0.11" transform="translate(446.881948, 152.875614) rotate(-32.982000) translate(-446.881948, -152.875614) " cx="446.881948" cy="152.875614" r="1"></circle>
                <circle id="Oval" opacity="0.3" transform="translate(324.803948, 237.701614) rotate(-32.982000) translate(-324.803948, -237.701614) " cx="324.803948" cy="237.701614" r="1.175"></circle>
                <circle id="Oval" opacity="0.11" transform="translate(344.279948, 204.059614) rotate(-32.982000) translate(-344.279948, -204.059614) " cx="344.279948" cy="204.059614" r="1.175"></circle>
                <circle id="Oval" transform="translate(333.006948, 187.223614) rotate(-32.982000) translate(-333.006948, -187.223614) " cx="333.006948" cy="187.223614" r="1"></circle>
                <circle id="Oval" transform="translate(332.584948, 261.008614) rotate(-32.982000) translate(-332.584948, -261.008614) " cx="332.584948" cy="261.008614" r="1"></circle>
                <circle id="Oval" transform="translate(502.529948, 164.722614) rotate(-32.982000) translate(-502.529948, -164.722614) " cx="502.529948" cy="164.722614" r="1"></circle>
                <circle id="Oval" transform="translate(177.373948, 363.829614) rotate(-32.982000) translate(-177.373948, -363.829614) " cx="177.373948" cy="363.829614" r="1"></circle>
                <circle id="Oval" transform="translate(104.506948, 395.017614) rotate(-32.982000) translate(-104.506948, -395.017614) " cx="104.506948" cy="395.017614" r="1"></circle>
                <circle id="Oval" transform="translate(83.342948, 380.747614) rotate(-32.982000) translate(-83.342948, -380.747614) " cx="83.3429485" cy="380.747614" r="1"></circle>
                <circle id="Oval" transform="translate(315.756948, 212.422614) rotate(-32.982000) translate(-315.756948, -212.422614) " cx="315.756948" cy="212.422614" r="1"></circle>
                <circle id="Oval" transform="translate(253.693948, 304.502614) rotate(-32.982000) translate(-253.693948, -304.502614) " cx="253.693948" cy="304.502614" r="1"></circle>
                <circle id="Oval" transform="translate(391.584948, 245.123614) rotate(-32.982000) translate(-391.584948, -245.123614) " cx="391.584948" cy="245.123614" r="1"></circle>
                <circle id="Oval" transform="translate(500.389948, 126.904614) rotate(-32.982000) translate(-500.389948, -126.904614) " cx="500.389948" cy="126.904614" r="1"></circle>
                <circle id="Oval" transform="translate(494.631948, 92.138614) rotate(-32.982000) translate(-494.631948, -92.138614) " cx="494.631948" cy="92.1386143" r="1"></circle>
                <circle id="Oval" opacity="0.3" transform="translate(373.810948, 161.093614) rotate(-32.982000) translate(-373.810948, -161.093614) " cx="373.810948" cy="161.093614" r="1.175"></circle>
                <circle id="Oval" transform="translate(351.107948, 126.118614) rotate(-32.982000) translate(-351.107948, -126.118614) " cx="351.107948" cy="126.118614" r="1.175"></circle>
                <circle id="Oval" transform="translate(406.373948, 155.714614) rotate(-32.982000) translate(-406.373948, -155.714614) " cx="406.373948" cy="155.714614" r="1"></circle>
                <circle id="Oval" opacity="0.3" transform="translate(417.639948, 120.749614) rotate(-32.982000) translate(-417.639948, -120.749614) " cx="417.639948" cy="120.749614" r="1.175"></circle>
                <circle id="Oval" opacity="0.3" transform="translate(489.107948, 124.076614) rotate(-32.982000) translate(-489.107948, -124.076614) " cx="489.107948" cy="124.076614" r="1.175"></circle>
                <circle id="Oval" opacity="0.3" transform="translate(432.107948, 162.465614) rotate(-32.982000) translate(-432.107948, -162.465614) " cx="432.107948" cy="162.465614" r="1.175"></circle>
                <circle id="Oval" opacity="0.3" transform="translate(154.771948, 354.344614) rotate(-32.982000) translate(-154.771948, -354.344614) " cx="154.771948" cy="354.344614" r="1.175"></circle>
                <circle id="Oval" opacity="0.3" transform="translate(97.279948, 353.147614) rotate(-32.982000) translate(-97.279948, -353.147614) " cx="97.2799485" cy="353.147614" r="1.175"></circle>
                <circle id="Oval" opacity="0.11" transform="translate(459.318948, 122.405614) rotate(-32.982000) translate(-459.318948, -122.405614) " cx="459.318948" cy="122.405614" r="1.175"></circle>
                <circle id="Oval" opacity="0.3" transform="translate(156.857948, 290.682614) rotate(-32.982000) translate(-156.857948, -290.682614) " cx="156.857948" cy="290.682614" r="1.175"></circle>
                <circle id="Oval" opacity="0.11" transform="translate(137.162948, 289.460614) rotate(-32.982000) translate(-137.162948, -289.460614) " cx="137.162948" cy="289.460614" r="1.175"></circle>
                <circle id="Oval" opacity="0.3" transform="translate(153.685948, 323.546614) rotate(-32.982000) translate(-153.685948, -323.546614) " cx="153.685948" cy="323.546614" r="1.175"></circle>
                <circle id="Oval" transform="translate(184.311948, 303.319614) rotate(-32.982000) translate(-184.311948, -303.319614) " cx="184.311948" cy="303.319614" r="1"></circle>
                <circle id="Oval" opacity="0.11" transform="translate(581.889948, 153.954614) rotate(-32.982000) translate(-581.889948, -153.954614) " cx="581.889948" cy="153.954614" r="1.175"></circle>
                <circle id="Oval" transform="translate(588.764948, 157.542614) rotate(-32.982000) translate(-588.764948, -157.542614) " cx="588.764948" cy="157.542614" r="1"></circle>
                <circle id="Oval" transform="translate(598.311948, 136.648614) rotate(-32.982000) translate(-598.311948, -136.648614) " cx="598.311948" cy="136.648614" r="1"></circle>
                <circle id="Oval" transform="translate(555.795948, 162.835614) rotate(-32.982000) translate(-555.795948, -162.835614) " cx="555.795948" cy="162.835614" r="1"></circle>
                <circle id="Oval" opacity="0.11" transform="translate(538.920948, 190.237614) rotate(-32.982000) translate(-538.920948, -190.237614) " cx="538.920948" cy="190.237614" r="1.175"></circle>
                <circle id="Oval" transform="translate(522.850948, 185.966614) rotate(-32.982000) translate(-522.850948, -185.966614) " cx="522.850948" cy="185.966614" r="1"></circle>
                <circle id="Oval" transform="translate(593.193948, 174.620614) rotate(-32.982000) translate(-593.193948, -174.620614) " cx="593.193948" cy="174.620614" r="1"></circle>
                <circle id="Oval" transform="translate(700.592948, 104.927614) rotate(-32.982000) translate(-700.592948, -104.927614) " cx="700.592948" cy="104.927614" r="1"></circle>
                <circle id="Oval" transform="translate(737.022948, 43.477614) rotate(-32.982000) translate(-737.022948, -43.477614) " cx="737.022948" cy="43.4776143" r="1"></circle>
                <circle id="Oval" transform="translate(779.576948, 66.970614) rotate(-32.982000) translate(-779.576948, -66.970614) " cx="779.576948" cy="66.9706143" r="1"></circle>
                <circle id="Oval" transform="translate(421.154948, 268.763614) rotate(-32.982000) translate(-421.154948, -268.763614) " cx="421.154948" cy="268.763614" r="1"></circle>
                <circle id="Oval" opacity="0.11" transform="translate(396.506948, 246.955614) rotate(-32.982000) translate(-396.506948, -246.955614) " cx="396.506948" cy="246.955614" r="1"></circle>
                <circle id="Oval" opacity="0.11" transform="translate(382.678948, 272.032614) rotate(-32.982000) translate(-382.678948, -272.032614) " cx="382.678948" cy="272.032614" r="1"></circle>
                <circle id="Oval" opacity="0.11" transform="translate(418.115948, 291.041614) rotate(-32.982000) translate(-418.115948, -291.041614) " cx="418.115948" cy="291.041614" r="1"></circle>
                <circle id="Oval" opacity="0.11" transform="translate(522.568948, 195.247614) rotate(-32.982000) translate(-522.568948, -195.247614) " cx="522.568948" cy="195.247614" r="1"></circle>
                <circle id="Oval" opacity="0.11" transform="translate(603.717948, 192.994614) rotate(-32.982000) translate(-603.717948, -192.994614) " cx="603.717948" cy="192.994614" r="1"></circle>
                <circle id="Oval" opacity="0.11" transform="translate(695.108948, 126.686614) rotate(-32.982000) translate(-695.108948, -126.686614) " cx="695.108948" cy="126.686614" r="1"></circle>
                <circle id="Oval" opacity="0.3" transform="translate(435.826948, 241.740614) rotate(-32.982000) translate(-435.826948, -241.740614) " cx="435.826948" cy="241.740614" r="1"></circle>
                <circle id="Oval" transform="translate(531.865948, 141.608614) rotate(-32.982000) translate(-531.865948, -141.608614) " cx="531.865948" cy="141.608614" r="1"></circle>
                <circle id="Oval" transform="translate(607.092948, 91.391614) rotate(-32.982000) translate(-607.092948, -91.391614) " cx="607.092948" cy="91.3916143" r="1"></circle>
                <circle id="Oval" transform="translate(527.779948, 208.671614) rotate(-32.982000) translate(-527.779948, -208.671614) " cx="527.779948" cy="208.671614" r="1"></circle>
                <circle id="Oval" opacity="0.3" transform="translate(493.295948, 231.050614) rotate(-32.982000) translate(-493.295948, -231.050614) " cx="493.295948" cy="231.050614" r="1"></circle>
                <circle id="Oval" opacity="0.11" transform="translate(433.084948, 226.719614) rotate(-32.982000) translate(-433.084948, -226.719614) " cx="433.084948" cy="226.719614" r="1"></circle>
                <circle id="Oval" opacity="0.3" transform="translate(548.412948, 147.676614) rotate(-32.982000) translate(-548.412948, -147.676614) " cx="548.412948" cy="147.676614" r="1"></circle>
                <circle id="Oval" opacity="0.3" transform="translate(542.233948, 212.595614) rotate(-32.982000) translate(-542.233948, -212.595614) " cx="542.233948" cy="212.595614" r="1"></circle>
                <circle id="Oval" opacity="0.3" transform="translate(485.818948, 256.204614) rotate(-32.982000) translate(-485.818948, -256.204614) " cx="485.818948" cy="256.204614" r="1"></circle>
                <circle id="Oval" opacity="0.3" transform="translate(450.115948, 232.471614) rotate(-32.982000) translate(-450.115948, -232.471614) " cx="450.115948" cy="232.471614" r="1"></circle>
                <circle id="Oval" opacity="0.3" transform="translate(755.568948, 32.143614) rotate(-32.982000) translate(-755.568948, -32.143614) " cx="755.568948" cy="32.1436143" r="1"></circle>
                <circle id="Oval" opacity="0.11" transform="translate(663.147948, 63.414614) rotate(-32.982000) translate(-663.147948, -63.414614) " cx="663.147948" cy="63.4146143" r="1"></circle>
                <circle id="Oval" opacity="0.11" transform="translate(756.014948, 61.955614) rotate(-32.982000) translate(-756.014948, -61.955614) " cx="756.014948" cy="61.9556143" r="1"></circle>
                <circle id="Oval" opacity="0.3" transform="translate(633.935948, 146.781614) rotate(-32.982000) translate(-633.935948, -146.781614) " cx="633.935948" cy="146.781614" r="1.175"></circle>
                <circle id="Oval" opacity="0.11" transform="translate(653.412948, 113.140614) rotate(-32.982000) translate(-653.412948, -113.140614) " cx="653.412948" cy="113.140614" r="1.175"></circle>
                <circle id="Oval" transform="translate(642.139948, 96.304614) rotate(-32.982000) translate(-642.139948, -96.304614) " cx="642.139948" cy="96.3046143" r="1"></circle>
                <circle id="Oval" transform="translate(641.717948, 170.089614) rotate(-32.982000) translate(-641.717948, -170.089614) " cx="641.717948" cy="170.089614" r="1"></circle>
                <circle id="Oval" transform="translate(811.662948, 73.803614) rotate(-32.982000) translate(-811.662948, -73.803614) " cx="811.662948" cy="73.8036143" r="1"></circle>
                <circle id="Oval" transform="translate(486.506948, 272.910614) rotate(-32.982000) translate(-486.506948, -272.910614) " cx="486.506948" cy="272.910614" r="1"></circle>
                <circle id="Oval" transform="translate(413.639948, 304.098614) rotate(-32.982000) translate(-413.639948, -304.098614) " cx="413.639948" cy="304.098614" r="1"></circle>
                <circle id="Oval" transform="translate(392.475948, 289.828614) rotate(-32.982000) translate(-392.475948, -289.828614) " cx="392.475948" cy="289.828614" r="1"></circle>
                <circle id="Oval" transform="translate(624.889948, 121.502614) rotate(-32.982000) translate(-624.889948, -121.502614) " cx="624.889948" cy="121.502614" r="1"></circle>
                <circle id="Oval" transform="translate(562.826948, 213.583614) rotate(-32.982000) translate(-562.826948, -213.583614) " cx="562.826948" cy="213.583614" r="1"></circle>
                <circle id="Oval" transform="translate(700.717948, 154.204614) rotate(-32.982000) translate(-700.717948, -154.204614) " cx="700.717948" cy="154.204614" r="1"></circle>
                <circle id="Oval" transform="translate(809.522404, 35.985775) rotate(-32.982000) translate(-809.522404, -35.985775) " cx="809.522404" cy="35.9857755" r="1"></circle>
                <circle id="Oval" transform="translate(803.764948, 1.218614) rotate(-32.982000) translate(-803.764948, -1.218614) " cx="803.764948" cy="1.21861432" r="1"></circle>
                <circle id="Oval" opacity="0.3" transform="translate(682.935948, 70.174614) rotate(-32.982000) translate(-682.935948, -70.174614) " cx="682.935948" cy="70.1746143" r="1.175"></circle>
                <circle id="Oval" transform="translate(660.240948, 35.199614) rotate(-32.982000) translate(-660.240948, -35.199614) " cx="660.240948" cy="35.1996143" r="1.175"></circle>
                <circle id="Oval" transform="translate(715.506948, 64.795614) rotate(-32.982000) translate(-715.506948, -64.795614) " cx="715.506948" cy="64.7956143" r="1"></circle>
                <circle id="Oval" opacity="0.3" transform="translate(726.771948, 29.830614) rotate(-32.982000) translate(-726.771948, -29.830614) " cx="726.771948" cy="29.8306143" r="1.175"></circle>
                <circle id="Oval" opacity="0.3" transform="translate(798.241493, 33.157453) rotate(-32.982000) translate(-798.241493, -33.157453) " cx="798.241493" cy="33.1574532" r="1.175"></circle>
                <circle id="Oval" opacity="0.3" transform="translate(741.240948, 71.546614) rotate(-32.982000) translate(-741.240948, -71.546614) " cx="741.240948" cy="71.5466143" r="1.175"></circle>
                <circle id="Oval" opacity="0.3" transform="translate(463.904948, 263.425614) rotate(-32.982000) translate(-463.904948, -263.425614) " cx="463.904948" cy="263.425614" r="1.175"></circle>
                <circle id="Oval" opacity="0.3" transform="translate(406.412948, 262.228614) rotate(-32.982000) translate(-406.412948, -262.228614) " cx="406.412948" cy="262.228614" r="1.175"></circle>
                <circle id="Oval" opacity="0.11" transform="translate(768.451948, 31.486614) rotate(-32.982000) translate(-768.451948, -31.486614) " cx="768.451948" cy="31.4866143" r="1.175"></circle>
                <circle id="Oval" opacity="0.3" transform="translate(465.990948, 199.762614) rotate(-32.982000) translate(-465.990948, -199.762614) " cx="465.990948" cy="199.762614" r="1.175"></circle>
                <circle id="Oval" opacity="0.11" transform="translate(446.295948, 198.541614) rotate(-32.982000) translate(-446.295948, -198.541614) " cx="446.295948" cy="198.541614" r="1.175"></circle>
                <circle id="Oval" opacity="0.3" transform="translate(462.818948, 232.626614) rotate(-32.982000) translate(-462.818948, -232.626614) " cx="462.818948" cy="232.626614" r="1.175"></circle>
                <circle id="Oval" transform="translate(493.443948, 212.400614) rotate(-32.982000) translate(-493.443948, -212.400614) " cx="493.443948" cy="212.400614" r="1"></circle>
            </g>
        </g>
    </g>
</svg>